<svg version="1.1" xmlns="http://www.w3.org/2000/svg" viewBox="0 0 1117 1175" width="1117" height="1175">
  <!-- svg-source:excalidraw -->
  
  <defs>
    <style class="style-fonts">
      @font-face {
        font-family: "Virgil";
        src: url("https://unpkg.com/@excalidraw/excalidraw@undefined/dist/excalidraw-assets/Virgil.woff2");
      }
      @font-face {
        font-family: "Cascadia";
        src: url("https://unpkg.com/@excalidraw/excalidraw@undefined/dist/excalidraw-assets/Cascadia.woff2");
      }
      @font-face {
        font-family: "Assistant";
        src: url("https://unpkg.com/@excalidraw/excalidraw@undefined/dist/excalidraw-assets/Assistant-Regular.woff2");
      }
    </style>
    
  </defs>
  <rect x="0" y="0" width="1117" height="1175" fill="#ffffff"/><g stroke-opacity="0.9" fill-opacity="0.9" stroke-linecap="round" transform="translate(228 10) rotate(0 108 64)"><path d="M32 0 C72.54 0, 113.08 0, 184 0 C205.33 0, 216 10.67, 216 32 C216 55.01, 216 78.01, 216 96 C216 117.33, 205.33 128, 184 128 C146.52 128, 109.04 128, 32 128 C10.67 128, 0 117.33, 0 96 C0 77.78, 0 59.56, 0 32 C0 10.67, 10.67 0, 32 0" stroke="none" stroke-width="0" fill="#e7f5ff"/><path d="M32 0 C80.13 0, 128.27 0, 184 0 M32 0 C84.6 0, 137.21 0, 184 0 M184 0 C205.33 0, 216 10.67, 216 32 M184 0 C205.33 0, 216 10.67, 216 32 M216 32 C216 45.1, 216 58.21, 216 96 M216 32 C216 49.09, 216 66.18, 216 96 M216 96 C216 117.33, 205.33 128, 184 128 M216 96 C216 117.33, 205.33 128, 184 128 M184 128 C125.62 128, 67.25 128, 32 128 M184 128 C126.47 128, 68.93 128, 32 128 M32 128 C10.67 128, 0 117.33, 0 96 M32 128 C10.67 128, 0 117.33, 0 96 M0 96 C0 72.27, 0 48.54, 0 32 M0 96 C0 70.67, 0 45.33, 0 32 M0 32 C0 10.67, 10.67 0, 32 0 M0 32 C0 10.67, 10.67 0, 32 0" stroke="#1971c2" stroke-width="1" fill="none"/></g><g stroke-opacity="0.9" fill-opacity="0.9" transform="translate(238 64) rotate(0 98 10)"><text x="98" y="0" font-family="Helvetica, Segoe UI Emoji" font-size="16px" fill="#1971c2" text-anchor="middle" style="white-space: pre;" direction="ltr" dominant-baseline="text-before-edge">👤</text><text x="98" y="18.4" font-family="Helvetica, Segoe UI Emoji" font-size="16px" fill="#1971c2" text-anchor="middle" style="white-space: pre;" direction="ltr" dominant-baseline="text-before-edge">Git Client</text><text x="98" y="36.8" font-family="Helvetica, Segoe UI Emoji" font-size="16px" fill="#1971c2" text-anchor="middle" style="white-space: pre;" direction="ltr" dominant-baseline="text-before-edge">(clone, push, fetch)</text></g><g stroke-opacity="0.9" fill-opacity="0.9" stroke-linecap="round" transform="translate(690 241) rotate(0 90.39999999999998 64)"><path d="M32 0 C55.46 0, 78.92 0, 148.8 0 C170.13 0, 180.8 10.67, 180.8 32 C180.8 46.31, 180.8 60.63, 180.8 96 C180.8 117.33, 170.13 128, 148.8 128 C110.48 128, 72.16 128, 32 128 C10.67 128, 0 117.33, 0 96 C0 71.96, 0 47.92, 0 32 C0 10.67, 10.67 0, 32 0" stroke="none" stroke-width="0" fill="#e7f5ff"/><path d="M32 0 C76.32 0, 120.63 0, 148.8 0 M32 0 C74.78 0, 117.56 0, 148.8 0 M148.8 0 C170.13 0, 180.8 10.67, 180.8 32 M148.8 0 C170.13 0, 180.8 10.67, 180.8 32 M180.8 32 C180.8 45.28, 180.8 58.56, 180.8 96 M180.8 32 C180.8 52.57, 180.8 73.14, 180.8 96 M180.8 96 C180.8 117.33, 170.13 128, 148.8 128 M180.8 96 C180.8 117.33, 170.13 128, 148.8 128 M148.8 128 C106.83 128, 64.87 128, 32 128 M148.8 128 C114.21 128, 79.62 128, 32 128 M32 128 C10.67 128, 0 117.33, 0 96 M32 128 C10.67 128, 0 117.33, 0 96 M0 96 C0 73.43, 0 50.86, 0 32 M0 96 C0 73.24, 0 50.49, 0 32 M0 32 C0 10.67, 10.67 0, 32 0 M0 32 C0 10.67, 10.67 0, 32 0" stroke="#1971c2" stroke-width="1" fill="none"/></g><g stroke-opacity="0.9" fill-opacity="0.9" transform="translate(700 295) rotate(0 80.39999999999998 10)"><text x="80.4" y="0" font-family="Helvetica, Segoe UI Emoji" font-size="16px" fill="#1971c2" text-anchor="middle" style="white-space: pre;" direction="ltr" dominant-baseline="text-before-edge">🔌</text><text x="80.4" y="18.4" font-family="Helvetica, Segoe UI Emoji" font-size="16px" fill="#1971c2" text-anchor="middle" style="white-space: pre;" direction="ltr" dominant-baseline="text-before-edge">REST Client</text><text x="80.4" y="36.8" font-family="Helvetica, Segoe UI Emoji" font-size="16px" fill="#1971c2" text-anchor="middle" style="white-space: pre;" direction="ltr" dominant-baseline="text-before-edge">(curl, SDK, bot)</text></g><g stroke-opacity="0.9" fill-opacity="0.9" stroke-linecap="round" transform="translate(66 253) rotate(0 108 52)"><path d="M26 0 C61.41 0, 96.82 0, 190 0 C207.33 0, 216 8.67, 216 26 C216 37.78, 216 49.57, 216 78 C216 95.33, 207.33 104, 190 104 C127.13 104, 64.25 104, 26 104 C8.67 104, 0 95.33, 0 78 C0 59.96, 0 41.92, 0 26 C0 8.67, 8.67 0, 26 0" stroke="none" stroke-width="0" fill="#ffc9c9"/><path d="M26 0 C81.93 0, 137.86 0, 190 0 M26 0 C87.32 0, 148.65 0, 190 0 M190 0 C207.33 0, 216 8.67, 216 26 M190 0 C207.33 0, 216 8.67, 216 26 M216 26 C216 40.36, 216 54.71, 216 78 M216 26 C216 44.79, 216 63.57, 216 78 M216 78 C216 95.33, 207.33 104, 190 104 M216 78 C216 95.33, 207.33 104, 190 104 M190 104 C145.08 104, 100.16 104, 26 104 M190 104 C133.27 104, 76.53 104, 26 104 M26 104 C8.67 104, 0 95.33, 0 78 M26 104 C8.67 104, 0 95.33, 0 78 M0 78 C0 64.58, 0 51.17, 0 26 M0 78 C0 63.16, 0 48.31, 0 26 M0 26 C0 8.67, 8.67 0, 26 0 M0 26 C0 8.67, 8.67 0, 26 0" stroke="#e03131" stroke-width="1" fill="none"/></g><g stroke-opacity="0.9" fill-opacity="0.9" transform="translate(76 295) rotate(0 98 10)"><text x="98" y="0" font-family="Helvetica, Segoe UI Emoji" font-size="16px" fill="#e03131" text-anchor="middle" style="white-space: pre;" direction="ltr" dominant-baseline="text-before-edge">SSH Proxy</text><text x="98" y="18.4" font-family="Helvetica, Segoe UI Emoji" font-size="16px" fill="#e03131" text-anchor="middle" style="white-space: pre;" direction="ltr" dominant-baseline="text-before-edge">(Node.js, port 2222)</text></g><g stroke-opacity="0.9" fill-opacity="0.9" stroke-linecap="round" transform="translate(388 498) rotate(0 110 64)"><path d="M32 0 C70.74 0, 109.48 0, 188 0 C209.33 0, 220 10.67, 220 32 C220 55.03, 220 78.06, 220 96 C220 117.33, 209.33 128, 188 128 C137.76 128, 87.53 128, 32 128 C10.67 128, 0 117.33, 0 96 C0 75.29, 0 54.58, 0 32 C0 10.67, 10.67 0, 32 0" stroke="none" stroke-width="0" fill="#d0bfff"/><path d="M32 0 C83.75 0, 135.51 0, 188 0 M32 0 C64.3 0, 96.59 0, 188 0 M188 0 C209.33 0, 220 10.67, 220 32 M188 0 C209.33 0, 220 10.67, 220 32 M220 32 C220 54.49, 220 76.99, 220 96 M220 32 C220 51.95, 220 71.91, 220 96 M220 96 C220 117.33, 209.33 128, 188 128 M220 96 C220 117.33, 209.33 128, 188 128 M188 128 C151.99 128, 115.99 128, 32 128 M188 128 C154.33 128, 120.66 128, 32 128 M32 128 C10.67 128, 0 117.33, 0 96 M32 128 C10.67 128, 0 117.33, 0 96 M0 96 C0 76.75, 0 57.49, 0 32 M0 96 C0 79.52, 0 63.03, 0 32 M0 32 C0 10.67, 10.67 0, 32 0 M0 32 C0 10.67, 10.67 0, 32 0" stroke="#7048e8" stroke-width="1" fill="none"/></g><g stroke-opacity="0.9" fill-opacity="0.9" transform="translate(398 552) rotate(0 100 10)"><text x="100" y="0" font-family="Helvetica, Segoe UI Emoji" font-size="16px" fill="#7048e8" text-anchor="middle" style="white-space: pre;" direction="ltr" dominant-baseline="text-before-edge">🖥️</text><text x="100" y="18.4" font-family="Helvetica, Segoe UI Emoji" font-size="16px" fill="#7048e8" text-anchor="middle" style="white-space: pre;" direction="ltr" dominant-baseline="text-before-edge">Cloudflare Worker</text><text x="100" y="36.8" font-family="Helvetica, Segoe UI Emoji" font-size="16px" fill="#7048e8" text-anchor="middle" style="white-space: pre;" direction="ltr" dominant-baseline="text-before-edge">(TypeScript Router)</text></g><g stroke-opacity="0.9" fill-opacity="0.9" stroke-linecap="round" transform="translate(388 746) rotate(0 110 64)"><path d="M32 0 C73.38 0, 114.76 0, 188 0 C209.33 0, 220 10.67, 220 32 C220 50.57, 220 69.13, 220 96 C220 117.33, 209.33 128, 188 128 C150.92 128, 113.83 128, 32 128 C10.67 128, 0 117.33, 0 96 C0 75.23, 0 54.47, 0 32 C0 10.67, 10.67 0, 32 0" stroke="none" stroke-width="0" fill="#ffa8a8"/><path d="M32 0 C91.11 0, 150.22 0, 188 0 M32 0 C65.29 0, 98.58 0, 188 0 M188 0 C209.33 0, 220 10.67, 220 32 M188 0 C209.33 0, 220 10.67, 220 32 M220 32 C220 49.82, 220 67.64, 220 96 M220 32 C220 57.09, 220 82.18, 220 96 M220 96 C220 117.33, 209.33 128, 188 128 M220 96 C220 117.33, 209.33 128, 188 128 M188 128 C153.72 128, 119.43 128, 32 128 M188 128 C134.26 128, 80.52 128, 32 128 M32 128 C10.67 128, 0 117.33, 0 96 M32 128 C10.67 128, 0 117.33, 0 96 M0 96 C0 79.05, 0 62.11, 0 32 M0 96 C0 80, 0 64, 0 32 M0 32 C0 10.67, 10.67 0, 32 0 M0 32 C0 10.67, 10.67 0, 32 0" stroke="#c92a2a" stroke-width="1" fill="none"/></g><g stroke-opacity="0.9" fill-opacity="0.9" transform="translate(398 800) rotate(0 100 10)"><text x="100" y="0" font-family="Helvetica, Segoe UI Emoji" font-size="16px" fill="#c92a2a" text-anchor="middle" style="white-space: pre;" direction="ltr" dominant-baseline="text-before-edge">RepoStore</text><text x="100" y="18.4" font-family="Helvetica, Segoe UI Emoji" font-size="16px" fill="#c92a2a" text-anchor="middle" style="white-space: pre;" direction="ltr" dominant-baseline="text-before-edge">Durable Object</text><text x="100" y="36.8" font-family="Helvetica, Segoe UI Emoji" font-size="16px" fill="#c92a2a" text-anchor="middle" style="white-space: pre;" direction="ltr" dominant-baseline="text-before-edge">(per-repo instance)</text></g><g stroke-opacity="0.9" fill-opacity="0.9" stroke-linecap="round" transform="translate(30 993) rotate(0 116.80000000000001 76)"><path d="M32 0 C71.61 0, 111.21 0, 201.6 0 C222.93 0, 233.6 10.67, 233.6 32 C233.6 62, 233.6 92.01, 233.6 120 C233.6 141.33, 222.93 152, 201.6 152 C140.36 152, 79.11 152, 32 152 C10.67 152, 0 141.33, 0 120 C0 92.96, 0 65.91, 0 32 C0 10.67, 10.67 0, 32 0" stroke="none" stroke-width="0" fill="#b2f2bb"/><path d="M32 0 C99.64 0, 167.28 0, 201.6 0 M32 0 C86.16 0, 140.31 0, 201.6 0 M201.6 0 C222.93 0, 233.6 10.67, 233.6 32 M201.6 0 C222.93 0, 233.6 10.67, 233.6 32 M233.6 32 C233.6 54.98, 233.6 77.97, 233.6 120 M233.6 32 C233.6 55.55, 233.6 79.09, 233.6 120 M233.6 120 C233.6 141.33, 222.93 152, 201.6 152 M233.6 120 C233.6 141.33, 222.93 152, 201.6 152 M201.6 152 C153.72 152, 105.85 152, 32 152 M201.6 152 C136.96 152, 72.33 152, 32 152 M32 152 C10.67 152, 0 141.33, 0 120 M32 152 C10.67 152, 0 141.33, 0 120 M0 120 C0 90.87, 0 61.75, 0 32 M0 120 C0 101.93, 0 83.85, 0 32 M0 32 C0 10.67, 10.67 0, 32 0 M0 32 C0 10.67, 10.67 0, 32 0" stroke="#2f9e44" stroke-width="1" fill="none"/></g><g stroke-opacity="0.9" fill-opacity="0.9" transform="translate(40 1059) rotate(0 106.80000000000001 10)"><text x="106.80000000000001" y="0" font-family="Helvetica, Segoe UI Emoji" font-size="16px" fill="#2f9e44" text-anchor="middle" style="white-space: pre;" direction="ltr" dominant-baseline="text-before-edge">🗄️</text><text x="106.80000000000001" y="18.4" font-family="Helvetica, Segoe UI Emoji" font-size="16px" fill="#2f9e44" text-anchor="middle" style="white-space: pre;" direction="ltr" dominant-baseline="text-before-edge">SQLite</text><text x="106.80000000000001" y="36.8" font-family="Helvetica, Segoe UI Emoji" font-size="16px" fill="#2f9e44" text-anchor="middle" style="white-space: pre;" direction="ltr" dominant-baseline="text-before-edge">(refs, HEAD, metadata,</text><text x="106.80000000000001" y="55.199999999999996" font-family="Helvetica, Segoe UI Emoji" font-size="16px" fill="#2f9e44" text-anchor="middle" style="white-space: pre;" direction="ltr" dominant-baseline="text-before-edge">commit index)</text></g><g stroke-opacity="0.9" fill-opacity="0.9" stroke-linecap="round" transform="translate(373 1005) rotate(0 125.60000000000002 64)"><path d="M32 0 C82.05 0, 132.09 0, 219.2 0 C240.53 0, 251.2 10.67, 251.2 32 C251.2 57.03, 251.2 82.06, 251.2 96 C251.2 117.33, 240.53 128, 219.2 128 C174.27 128, 129.35 128, 32 128 C10.67 128, 0 117.33, 0 96 C0 75.06, 0 54.12, 0 32 C0 10.67, 10.67 0, 32 0" stroke="none" stroke-width="0" fill="#e599f7"/><path d="M32 0 C71.03 0, 110.05 0, 219.2 0 M32 0 C82.93 0, 133.87 0, 219.2 0 M219.2 0 C240.53 0, 251.2 10.67, 251.2 32 M219.2 0 C240.53 0, 251.2 10.67, 251.2 32 M251.2 32 C251.2 53.44, 251.2 74.87, 251.2 96 M251.2 32 C251.2 54.38, 251.2 76.76, 251.2 96 M251.2 96 C251.2 117.33, 240.53 128, 219.2 128 M251.2 96 C251.2 117.33, 240.53 128, 219.2 128 M219.2 128 C144.56 128, 69.91 128, 32 128 M219.2 128 C179.91 128, 140.63 128, 32 128 M32 128 C10.67 128, 0 117.33, 0 96 M32 128 C10.67 128, 0 117.33, 0 96 M0 96 C0 71.15, 0 46.29, 0 32 M0 96 C0 71.73, 0 47.46, 0 32 M0 32 C0 10.67, 10.67 0, 32 0 M0 32 C0 10.67, 10.67 0, 32 0" stroke="#9c36b5" stroke-width="1" fill="none"/></g><g stroke-opacity="0.9" fill-opacity="0.9" transform="translate(383 1059) rotate(0 115.60000000000002 10)"><text x="115.60000000000001" y="0" font-family="Helvetica, Segoe UI Emoji" font-size="16px" fill="#9c36b5" text-anchor="middle" style="white-space: pre;" direction="ltr" dominant-baseline="text-before-edge">Zig WASM Engine</text><text x="115.60000000000001" y="18.4" font-family="Helvetica, Segoe UI Emoji" font-size="16px" fill="#9c36b5" text-anchor="middle" style="white-space: pre;" direction="ltr" dominant-baseline="text-before-edge">(SHA-1, zlib, packfiles,</text><text x="115.60000000000001" y="36.8" font-family="Helvetica, Segoe UI Emoji" font-size="16px" fill="#9c36b5" text-anchor="middle" style="white-space: pre;" direction="ltr" dominant-baseline="text-before-edge">delta, 791KB)</text></g><g stroke-opacity="0.9" fill-opacity="0.9" stroke-linecap="round" transform="translate(732 993) rotate(0 116.80000000000001 76)"><path d="M32 0 C71.87 0, 111.73 0, 201.6 0 C222.93 0, 233.6 10.67, 233.6 32 C233.6 49.75, 233.6 67.49, 233.6 120 C233.6 141.33, 222.93 152, 201.6 152 C149.97 152, 98.34 152, 32 152 C10.67 152, 0 141.33, 0 120 C0 90.55, 0 61.1, 0 32 C0 10.67, 10.67 0, 32 0" stroke="none" stroke-width="0" fill="#ffec99"/><path d="M32 0 C90.29 0, 148.58 0, 201.6 0 M32 0 C68.15 0, 104.29 0, 201.6 0 M201.6 0 C222.93 0, 233.6 10.67, 233.6 32 M201.6 0 C222.93 0, 233.6 10.67, 233.6 32 M233.6 32 C233.6 59.15, 233.6 86.29, 233.6 120 M233.6 32 C233.6 62.57, 233.6 93.13, 233.6 120 M233.6 120 C233.6 141.33, 222.93 152, 201.6 152 M233.6 120 C233.6 141.33, 222.93 152, 201.6 152 M201.6 152 C164.62 152, 127.65 152, 32 152 M201.6 152 C140.3 152, 79 152, 32 152 M32 152 C10.67 152, 0 141.33, 0 120 M32 152 C10.67 152, 0 141.33, 0 120 M0 120 C0 94.73, 0 69.47, 0 32 M0 120 C0 101.95, 0 83.89, 0 32 M0 32 C0 10.67, 10.67 0, 32 0 M0 32 C0 10.67, 10.67 0, 32 0" stroke="#f08c00" stroke-width="1" fill="none"/></g><g stroke-opacity="0.9" fill-opacity="0.9" transform="translate(742 1059) rotate(0 106.80000000000001 10)"><text x="106.80000000000001" y="0" font-family="Helvetica, Segoe UI Emoji" font-size="16px" fill="#f08c00" text-anchor="middle" style="white-space: pre;" direction="ltr" dominant-baseline="text-before-edge">☁️</text><text x="106.80000000000001" y="18.4" font-family="Helvetica, Segoe UI Emoji" font-size="16px" fill="#f08c00" text-anchor="middle" style="white-space: pre;" direction="ltr" dominant-baseline="text-before-edge">R2 Object Storage</text><text x="106.80000000000001" y="36.8" font-family="Helvetica, Segoe UI Emoji" font-size="16px" fill="#f08c00" text-anchor="middle" style="white-space: pre;" direction="ltr" dominant-baseline="text-before-edge">(git objects:</text><text x="106.80000000000001" y="55.199999999999996" font-family="Helvetica, Segoe UI Emoji" font-size="16px" fill="#f08c00" text-anchor="middle" style="white-space: pre;" direction="ltr" dominant-baseline="text-before-edge">blobs, trees, commits)</text></g><g stroke-linecap="round"><g transform="translate(294 133) rotate(0 -40 56.5)"><path d="M0 0 C-13.33 18.83, -66.67 94.17, -80 113" stroke="#e03131" stroke-width="2.5" fill="none" stroke-dasharray="8 10"/></g><g transform="translate(294 133) rotate(0 -40 56.5)"><path d="M-72.09 84.06 C-74.13 91.55, -76.18 99.04, -80 113" stroke="#e03131" stroke-width="2.5" fill="none"/></g><g transform="translate(294 133) rotate(0 -40 56.5)"><path d="M-55.34 95.92 C-61.72 100.34, -68.1 104.76, -80 113" stroke="#e03131" stroke-width="2.5" fill="none"/></g></g><mask/><g transform="translate(251.4 177) rotate(0 20.60000000000001 10)"><text x="20.6" y="0" font-family="Virgil, Segoe UI Emoji" font-size="14px" fill="#1e1e1e" text-anchor="middle" style="white-space: pre;" direction="ltr" dominant-baseline="text-before-edge">SSH</text></g><g stroke-linecap="round"><g transform="translate(317 137) rotate(0 78 175.5)"><path d="M0 0 C26 58.5, 130 292.5, 156 351 M0 0 C26 58.5, 130 292.5, 156 351" stroke="#7048e8" stroke-width="2" fill="none"/></g><g transform="translate(317 137) rotate(0 78 175.5)"><path d="M135.17 329.41 C141.99 336.48, 148.81 343.55, 156 351 M135.17 329.41 C140.64 335.07, 146.11 340.74, 156 351" stroke="#7048e8" stroke-width="2" fill="none"/></g><g transform="translate(317 137) rotate(0 78 175.5)"><path d="M153.93 321.07 C154.61 330.87, 155.28 340.67, 156 351 M153.93 321.07 C154.47 328.93, 155.02 336.78, 156 351" stroke="#7048e8" stroke-width="2" fill="none"/></g></g><mask/><g transform="translate(533 293) rotate(0 50 10)"><text x="50" y="0" font-family="Virgil, Segoe UI Emoji" font-size="14px" fill="#1e1e1e" text-anchor="middle" style="white-space: pre;" direction="ltr" dominant-baseline="text-before-edge">Smart HTTP</text></g><g stroke-linecap="round"><g transform="translate(724 356) rotate(0 -80 72)"><path d="M0 0 C-26.67 24, -133.33 120, -160 144 M0 0 C-26.67 24, -133.33 120, -160 144" stroke="#7048e8" stroke-width="2" fill="none"/></g><g transform="translate(724 356) rotate(0 -80 72)"><path d="M-145.91 117.51 C-150.79 126.68, -155.67 135.85, -160 144 M-145.91 117.51 C-149.87 124.96, -153.83 132.4, -160 144" stroke="#7048e8" stroke-width="2" fill="none"/></g><g transform="translate(724 356) rotate(0 -80 72)"><path d="M-132.18 132.77 C-141.81 136.66, -151.44 140.55, -160 144 M-132.18 132.77 C-140 135.92, -147.81 139.08, -160 144" stroke="#7048e8" stroke-width="2" fill="none"/></g></g><mask/><g transform="translate(881 416) rotate(0 113 10)"><text x="113" y="0" font-family="Virgil, Segoe UI Emoji" font-size="14px" fill="#1e1e1e" text-anchor="middle" style="white-space: pre;" direction="ltr" dominant-baseline="text-before-edge">REST API</text><text x="113" y="17.5" font-family="Virgil, Segoe UI Emoji" font-size="14px" fill="#1e1e1e" text-anchor="middle" style="white-space: pre;" direction="ltr" dominant-baseline="text-before-edge">/api/repos/:owner/:repo/*</text></g><g stroke-linecap="round"><g transform="translate(191 356) rotate(0 103.5 81.5)"><path d="M0 0 C5.17 14.83, -3.5 61.83, 31 89 C65.5 116.17, 177.67 150.67, 207 163 M0 0 C5.17 14.83, -3.5 61.83, 31 89 C65.5 116.17, 177.67 150.67, 207 163" stroke="#7048e8" stroke-width="2" fill="none"/></g><g transform="translate(191 356) rotate(0 103.5 81.5)"><path d="M177 162.93 C187.01 162.95, 197.02 162.98, 207 163 M177 162.93 C185.69 162.95, 194.38 162.97, 207 163" stroke="#7048e8" stroke-width="2" fill="none"/></g><g transform="translate(191 356) rotate(0 103.5 81.5)"><path d="M184.06 143.66 C191.72 150.11, 199.37 156.57, 207 163 M184.06 143.66 C190.71 149.27, 197.35 154.87, 207 163" stroke="#7048e8" stroke-width="2" fill="none"/></g></g><mask/><g transform="translate(218.6 416) rotate(0 100.39999999999999 10)"><text x="100.4" y="0" font-family="Virgil, Segoe UI Emoji" font-size="14px" fill="#1e1e1e" text-anchor="middle" style="white-space: pre;" direction="ltr" dominant-baseline="text-before-edge">HTTP</text><text x="100.4" y="17.5" font-family="Virgil, Segoe UI Emoji" font-size="14px" fill="#1e1e1e" text-anchor="middle" style="white-space: pre;" direction="ltr" dominant-baseline="text-before-edge">(translates SSH→HTTP)</text></g><g stroke-linecap="round"><g transform="translate(498 626) rotate(0 0 54)"><path d="M0 0 C0 18, 0 90, 0 108 M0 0 C0 18, 0 90, 0 108" stroke="#c92a2a" stroke-width="2" fill="none"/></g><g transform="translate(498 626) rotate(0 0 54)"><path d="M-10.26 79.81 C-7.56 87.24, -4.85 94.67, 0 108 M-10.26 79.81 C-7.15 88.34, -4.05 96.88, 0 108" stroke="#c92a2a" stroke-width="2" fill="none"/></g><g transform="translate(498 626) rotate(0 0 54)"><path d="M10.26 79.81 C7.56 87.24, 4.85 94.67, 0 108 M10.26 79.81 C7.15 88.34, 4.05 96.88, 0 108" stroke="#c92a2a" stroke-width="2" fill="none"/></g></g><mask/><g transform="translate(314.19999999999993 674) rotate(0 83.60000000000002 10)"><text x="83.60000000000001" y="0" font-family="Virgil, Segoe UI Emoji" font-size="14px" fill="#1e1e1e" text-anchor="middle" style="white-space: pre;" direction="ltr" dominant-baseline="text-before-edge">routes per-repo</text><text x="83.60000000000001" y="17.5" font-family="Virgil, Segoe UI Emoji" font-size="14px" fill="#1e1e1e" text-anchor="middle" style="white-space: pre;" direction="ltr" dominant-baseline="text-before-edge">(x-action headers)</text></g><g stroke-linecap="round"><g transform="translate(423 857) rotate(0 -98 72.5)"><path d="M0 0 C-15.83 10, -62.33 35.83, -95 60 C-127.67 84.17, -179.17 130.83, -196 145 M0 0 C-15.83 10, -62.33 35.83, -95 60 C-127.67 84.17, -179.17 130.83, -196 145" stroke="#2f9e44" stroke-width="2" fill="none"/></g><g transform="translate(423 857) rotate(0 -98 72.5)"><path d="M-181.45 118.77 C-186.34 127.58, -191.23 136.4, -196 145 M-181.45 118.77 C-187 128.78, -192.55 138.79, -196 145" stroke="#2f9e44" stroke-width="2" fill="none"/></g><g transform="translate(423 857) rotate(0 -98 72.5)"><path d="M-167.99 134.26 C-177.4 137.87, -186.81 141.48, -196 145 M-167.99 134.26 C-178.68 138.36, -189.36 142.45, -196 145" stroke="#2f9e44" stroke-width="2" fill="none"/></g></g><mask/><g transform="translate(152.8 886) rotate(0 79.4 10)"><text x="79.4" y="0" font-family="Virgil, Segoe UI Emoji" font-size="14px" fill="#1e1e1e" text-anchor="middle" style="white-space: pre;" direction="ltr" dominant-baseline="text-before-edge">reads/writes refs</text></g><g stroke-linecap="round"><g transform="translate(458 874) rotate(0 20 59.5)"><path d="M0 0 C6.67 19.83, 33.33 99.17, 40 119 M0 0 C6.67 19.83, 33.33 99.17, 40 119" stroke="#9c36b5" stroke-width="2" fill="none"/></g><g transform="translate(458 874) rotate(0 20 59.5)"><path d="M21.29 95.55 C27.82 103.73, 34.34 111.9, 40 119 M21.29 95.55 C27.82 103.73, 34.34 111.91, 40 119" stroke="#9c36b5" stroke-width="2" fill="none"/></g><g transform="translate(458 874) rotate(0 20 59.5)"><path d="M40.74 89.01 C40.48 99.47, 40.23 109.92, 40 119 M40.74 89.01 C40.48 99.47, 40.22 109.93, 40 119" stroke="#9c36b5" stroke-width="2" fill="none"/></g></g><mask/><g transform="translate(489.6 1004) rotate(0 100.40000000000003 10)"><text x="100.4" y="0" font-family="Virgil, Segoe UI Emoji" font-size="14px" fill="#1e1e1e" text-anchor="middle" style="white-space: pre;" direction="ltr" dominant-baseline="text-before-edge">SHA-1, zlib,</text><text x="100.4" y="17.5" font-family="Virgil, Segoe UI Emoji" font-size="14px" fill="#1e1e1e" text-anchor="middle" style="white-space: pre;" direction="ltr" dominant-baseline="text-before-edge">packfile encode/decode</text></g><g stroke-linecap="round"><g transform="translate(620 852) rotate(0 81 72)"><path d="M0 0 C15 10.83, 63 41, 90 65 C117 89, 150 130.83, 162 144 M0 0 C15 10.83, 63 41, 90 65 C117 89, 150 130.83, 162 144" stroke="#f08c00" stroke-width="2" fill="none"/></g><g transform="translate(620 852) rotate(0 81 72)"><path d="M135.85 129.29 C146.11 135.06, 156.36 140.83, 162 144 M135.85 129.29 C143.72 133.72, 151.59 138.15, 162 144" stroke="#f08c00" stroke-width="2" fill="none"/></g><g transform="translate(620 852) rotate(0 81 72)"><path d="M151.42 115.93 C155.57 126.94, 159.72 137.95, 162 144 M151.42 115.93 C154.6 124.38, 157.79 132.82, 162 144" stroke="#f08c00" stroke-width="2" fill="none"/></g></g><mask/><g transform="translate(731.8 876) rotate(0 54.19999999999999 10)"><text x="54.2" y="0" font-family="Virgil, Segoe UI Emoji" font-size="14px" fill="#1e1e1e" text-anchor="middle" style="white-space: pre;" direction="ltr" dominant-baseline="text-before-edge">store/fetch</text><text x="54.2" y="17.5" font-family="Virgil, Segoe UI Emoji" font-size="14px" fill="#1e1e1e" text-anchor="middle" style="white-space: pre;" direction="ltr" dominant-baseline="text-before-edge">git objects</text></g><g stroke-opacity="0.6" fill-opacity="0.6" stroke-linecap="round" transform="translate(10 453) rotate(0 488 356)"><path d="M32 0 C266.58 0, 501.17 0, 944 0 M944 0 C965.33 0, 976 10.67, 976 32 M976 32 C976 238.72, 976 445.44, 976 680 M976 680 C976 701.33, 965.33 712, 944 712 M944 712 C586.98 712, 229.95 712, 32 712 M32 712 C10.67 712, 0 701.33, 0 680 M0 680 C0 454.67, 0 229.34, 0 32 M0 32 C0 10.67, 10.67 0, 32 0" stroke="#868e96" stroke-width="1.5" fill="none" stroke-dasharray="8 9"/></g><g stroke-opacity="0.6" fill-opacity="0.6" transform="translate(20 458) rotate(0 71 10)"><text x="0" y="0" font-family="Virgil, Segoe UI Emoji" font-size="14px" fill="#868e96" text-anchor="start" style="white-space: pre;" direction="ltr" dominant-baseline="text-before-edge">Cloudflare Edge</text></g></svg>