<svg version="1.1" xmlns="http://www.w3.org/2000/svg" viewBox="0 0 2176 1033" width="2176" height="1033">
  <!-- svg-source:excalidraw -->
  
  <defs>
    <style class="style-fonts">
      @font-face {
        font-family: "Virgil";
        src: url("https://unpkg.com/@excalidraw/excalidraw@undefined/dist/excalidraw-assets/Virgil.woff2");
      }
      @font-face {
        font-family: "Cascadia";
        src: url("https://unpkg.com/@excalidraw/excalidraw@undefined/dist/excalidraw-assets/Cascadia.woff2");
      }
      @font-face {
        font-family: "Assistant";
        src: url("https://unpkg.com/@excalidraw/excalidraw@undefined/dist/excalidraw-assets/Assistant-Regular.woff2");
      }
    </style>
    
  </defs>
  <rect x="0" y="0" width="2176" height="1033" fill="#ffffff"/><g stroke-opacity="0.9" fill-opacity="0.9" stroke-linecap="round" transform="translate(536 10) rotate(0 90 52)"><path d="M26 0 C75.97 0, 125.95 0, 154 0 C171.33 0, 180 8.67, 180 26 C180 37.48, 180 48.97, 180 78 C180 95.33, 171.33 104, 154 104 C111.28 104, 68.56 104, 26 104 C8.67 104, 0 95.33, 0 78 C0 57.61, 0 37.23, 0 26 C0 8.67, 8.67 0, 26 0" stroke="none" stroke-width="0" fill="#e7f5ff"/><path d="M26 0 C51.95 0, 77.91 0, 154 0 M26 0 C60 0, 94.01 0, 154 0 M154 0 C171.33 0, 180 8.67, 180 26 M154 0 C171.33 0, 180 8.67, 180 26 M180 26 C180 37.83, 180 49.65, 180 78 M180 26 C180 36.52, 180 47.03, 180 78 M180 78 C180 95.33, 171.33 104, 154 104 M180 78 C180 95.33, 171.33 104, 154 104 M154 104 C126.99 104, 99.98 104, 26 104 M154 104 C104.84 104, 55.69 104, 26 104 M26 104 C8.67 104, 0 95.33, 0 78 M26 104 C8.67 104, 0 95.33, 0 78 M0 78 C0 65.79, 0 53.59, 0 26 M0 78 C0 64.93, 0 51.87, 0 26 M0 26 C0 8.67, 8.67 0, 26 0 M0 26 C0 8.67, 8.67 0, 26 0" stroke="#1971c2" stroke-width="1" fill="none"/></g><g stroke-opacity="0.9" fill-opacity="0.9" transform="translate(546 52) rotate(0 80 10)"><text x="80" y="0" font-family="Helvetica, Segoe UI Emoji" font-size="16px" fill="#1971c2" text-anchor="middle" style="white-space: pre;" direction="ltr" dominant-baseline="text-before-edge">👤</text><text x="80" y="18.4" font-family="Helvetica, Segoe UI Emoji" font-size="16px" fill="#1971c2" text-anchor="middle" style="white-space: pre;" direction="ltr" dominant-baseline="text-before-edge">Git Client</text></g><g stroke-opacity="0.9" fill-opacity="0.9" stroke-linecap="round" transform="translate(516 217) rotate(0 110 64)"><path d="M32 0 C85.03 0, 138.05 0, 188 0 C209.33 0, 220 10.67, 220 32 C220 53.96, 220 75.93, 220 96 C220 117.33, 209.33 128, 188 128 C127.92 128, 67.83 128, 32 128 C10.67 128, 0 117.33, 0 96 C0 77.16, 0 58.33, 0 32 C0 10.67, 10.67 0, 32 0" stroke="none" stroke-width="0" fill="#a5d8ff"/><path d="M32 0 C65.31 0, 98.61 0, 188 0 M32 0 C92.54 0, 153.08 0, 188 0 M188 0 C209.33 0, 220 10.67, 220 32 M188 0 C209.33 0, 220 10.67, 220 32 M220 32 C220 56.52, 220 81.04, 220 96 M220 32 C220 51.75, 220 71.51, 220 96 M220 96 C220 117.33, 209.33 128, 188 128 M220 96 C220 117.33, 209.33 128, 188 128 M188 128 C150.59 128, 113.19 128, 32 128 M188 128 C142.75 128, 97.5 128, 32 128 M32 128 C10.67 128, 0 117.33, 0 96 M32 128 C10.67 128, 0 117.33, 0 96 M0 96 C0 71.91, 0 47.83, 0 32 M0 96 C0 75.09, 0 54.18, 0 32 M0 32 C0 10.67, 10.67 0, 32 0 M0 32 C0 10.67, 10.67 0, 32 0" stroke="#1971c2" stroke-width="1" fill="none"/></g><g stroke-opacity="0.9" fill-opacity="0.9" transform="translate(526 271) rotate(0 100 10)"><text x="100" y="0" font-family="Helvetica, Segoe UI Emoji" font-size="16px" fill="#1971c2" text-anchor="middle" style="white-space: pre;" direction="ltr" dominant-baseline="text-before-edge">🔌</text><text x="100" y="18.4" font-family="Helvetica, Segoe UI Emoji" font-size="16px" fill="#1971c2" text-anchor="middle" style="white-space: pre;" direction="ltr" dominant-baseline="text-before-edge">Cloudflare Worker</text><text x="100" y="36.8" font-family="Helvetica, Segoe UI Emoji" font-size="16px" fill="#1971c2" text-anchor="middle" style="white-space: pre;" direction="ltr" dominant-baseline="text-before-edge">(TypeScript Router)</text></g><g stroke-opacity="0.9" fill-opacity="0.9" stroke-linecap="round" transform="translate(516 458) rotate(0 110 64)"><path d="M32 0 C82.29 0, 132.57 0, 188 0 C209.33 0, 220 10.67, 220 32 C220 45.33, 220 58.66, 220 96 C220 117.33, 209.33 128, 188 128 C131.75 128, 75.5 128, 32 128 C10.67 128, 0 117.33, 0 96 C0 78.28, 0 60.57, 0 32 C0 10.67, 10.67 0, 32 0" stroke="none" stroke-width="0" fill="#ffa8a8"/><path d="M32 0 C67.96 0, 103.93 0, 188 0 M32 0 C87.24 0, 142.47 0, 188 0 M188 0 C209.33 0, 220 10.67, 220 32 M188 0 C209.33 0, 220 10.67, 220 32 M220 32 C220 57.44, 220 82.88, 220 96 M220 32 C220 55.73, 220 79.45, 220 96 M220 96 C220 117.33, 209.33 128, 188 128 M220 96 C220 117.33, 209.33 128, 188 128 M188 128 C145.01 128, 102.03 128, 32 128 M188 128 C138.26 128, 88.53 128, 32 128 M32 128 C10.67 128, 0 117.33, 0 96 M32 128 C10.67 128, 0 117.33, 0 96 M0 96 C0 75.38, 0 54.76, 0 32 M0 96 C0 73.87, 0 51.74, 0 32 M0 32 C0 10.67, 10.67 0, 32 0 M0 32 C0 10.67, 10.67 0, 32 0" stroke="#c92a2a" stroke-width="1" fill="none"/></g><g stroke-opacity="0.9" fill-opacity="0.9" transform="translate(526 512) rotate(0 100 10)"><text x="100" y="0" font-family="Helvetica, Segoe UI Emoji" font-size="16px" fill="#c92a2a" text-anchor="middle" style="white-space: pre;" direction="ltr" dominant-baseline="text-before-edge">🖥️</text><text x="100" y="18.4" font-family="Helvetica, Segoe UI Emoji" font-size="16px" fill="#c92a2a" text-anchor="middle" style="white-space: pre;" direction="ltr" dominant-baseline="text-before-edge">RepoStore</text><text x="100" y="36.8" font-family="Helvetica, Segoe UI Emoji" font-size="16px" fill="#c92a2a" text-anchor="middle" style="white-space: pre;" direction="ltr" dominant-baseline="text-before-edge">Durable Object</text></g><g stroke-opacity="0.9" fill-opacity="0.9" stroke-linecap="round" transform="translate(298 689) rotate(0 80 52)"><path d="M26 0 C69.07 0, 112.14 0, 134 0 C151.33 0, 160 8.67, 160 26 C160 40.92, 160 55.84, 160 78 C160 95.33, 151.33 104, 134 104 C99.32 104, 64.65 104, 26 104 C8.67 104, 0 95.33, 0 78 C0 65.78, 0 53.55, 0 26 C0 8.67, 8.67 0, 26 0" stroke="none" stroke-width="0" fill="#b2f2bb"/><path d="M26 0 C59.85 0, 93.71 0, 134 0 M26 0 C53.36 0, 80.72 0, 134 0 M134 0 C151.33 0, 160 8.67, 160 26 M134 0 C151.33 0, 160 8.67, 160 26 M160 26 C160 43.46, 160 60.93, 160 78 M160 26 C160 44.45, 160 62.91, 160 78 M160 78 C160 95.33, 151.33 104, 134 104 M160 78 C160 95.33, 151.33 104, 134 104 M134 104 C100.85 104, 67.69 104, 26 104 M134 104 C106.92 104, 79.84 104, 26 104 M26 104 C8.67 104, 0 95.33, 0 78 M26 104 C8.67 104, 0 95.33, 0 78 M0 78 C0 60.16, 0 42.33, 0 26 M0 78 C0 59.1, 0 40.19, 0 26 M0 26 C0 8.67, 8.67 0, 26 0 M0 26 C0 8.67, 8.67 0, 26 0" stroke="#2f9e44" stroke-width="1" fill="none"/></g><g stroke-opacity="0.9" fill-opacity="0.9" transform="translate(308 731) rotate(0 70 10)"><text x="70" y="0" font-family="Helvetica, Segoe UI Emoji" font-size="16px" fill="#2f9e44" text-anchor="middle" style="white-space: pre;" direction="ltr" dominant-baseline="text-before-edge">🗄️</text><text x="70" y="18.4" font-family="Helvetica, Segoe UI Emoji" font-size="16px" fill="#2f9e44" text-anchor="middle" style="white-space: pre;" direction="ltr" dominant-baseline="text-before-edge">SQLite</text></g><g stroke-opacity="0.9" fill-opacity="0.9" stroke-linecap="round" transform="translate(1067 689) rotate(0 90 52)"><path d="M26 0 C71.97 0, 117.94 0, 154 0 C171.33 0, 180 8.67, 180 26 C180 44.4, 180 62.8, 180 78 C180 95.33, 171.33 104, 154 104 C106.43 104, 58.86 104, 26 104 C8.67 104, 0 95.33, 0 78 C0 57.7, 0 37.41, 0 26 C0 8.67, 8.67 0, 26 0" stroke="none" stroke-width="0" fill="#d0bfff"/><path d="M26 0 C73.92 0, 121.85 0, 154 0 M26 0 C66.96 0, 107.93 0, 154 0 M154 0 C171.33 0, 180 8.67, 180 26 M154 0 C171.33 0, 180 8.67, 180 26 M180 26 C180 45.24, 180 64.49, 180 78 M180 26 C180 44.2, 180 62.41, 180 78 M180 78 C180 95.33, 171.33 104, 154 104 M180 78 C180 95.33, 171.33 104, 154 104 M154 104 C127.68 104, 101.35 104, 26 104 M154 104 C124.84 104, 95.68 104, 26 104 M26 104 C8.67 104, 0 95.33, 0 78 M26 104 C8.67 104, 0 95.33, 0 78 M0 78 C0 66.55, 0 55.1, 0 26 M0 78 C0 60.79, 0 43.57, 0 26 M0 26 C0 8.67, 8.67 0, 26 0 M0 26 C0 8.67, 8.67 0, 26 0" stroke="#7048e8" stroke-width="1" fill="none"/></g><g stroke-opacity="0.9" fill-opacity="0.9" transform="translate(1077 731) rotate(0 80 10)"><text x="80" y="0" font-family="Helvetica, Segoe UI Emoji" font-size="16px" fill="#7048e8" text-anchor="middle" style="white-space: pre;" direction="ltr" dominant-baseline="text-before-edge">Zig WASM Engine</text><text x="80" y="18.4" font-family="Helvetica, Segoe UI Emoji" font-size="16px" fill="#7048e8" text-anchor="middle" style="white-space: pre;" direction="ltr" dominant-baseline="text-before-edge">(791KB)</text></g><g stroke-opacity="0.9" fill-opacity="0.9" stroke-linecap="round" transform="translate(30 929) rotate(0 80 30)"><path d="M15 0 C55.18 0, 95.36 0, 145 0 C155 0, 160 5, 160 15 C160 24.56, 160 34.11, 160 45 C160 55, 155 60, 145 60 C99.87 60, 54.74 60, 15 60 C5 60, 0 55, 0 45 C0 36.06, 0 27.12, 0 15 C0 5, 5 0, 15 0" stroke="none" stroke-width="0" fill="#b2f2bb"/><path d="M15 0 C42.46 0, 69.91 0, 145 0 M15 0 C60.03 0, 105.06 0, 145 0 M145 0 C155 0, 160 5, 160 15 M145 0 C155 0, 160 5, 160 15 M160 15 C160 22.66, 160 30.32, 160 45 M160 15 C160 24.38, 160 33.77, 160 45 M160 45 C160 55, 155 60, 145 60 M160 45 C160 55, 155 60, 145 60 M145 60 C110.89 60, 76.79 60, 15 60 M145 60 C110.6 60, 76.2 60, 15 60 M15 60 C5 60, 0 55, 0 45 M15 60 C5 60, 0 55, 0 45 M0 45 C0 36.47, 0 27.94, 0 15 M0 45 C0 38.82, 0 32.64, 0 15 M0 15 C0 5, 5 0, 15 0 M0 15 C0 5, 5 0, 15 0" stroke="#2f9e44" stroke-width="1" fill="none"/></g><g stroke-opacity="0.9" fill-opacity="0.9" transform="translate(40 949) rotate(0 70 10)"><text x="70" y="0" font-family="Helvetica, Segoe UI Emoji" font-size="16px" fill="#2f9e44" text-anchor="middle" style="white-space: pre;" direction="ltr" dominant-baseline="text-before-edge">refs</text><text x="70" y="18.4" font-family="Helvetica, Segoe UI Emoji" font-size="16px" fill="#2f9e44" text-anchor="middle" style="white-space: pre;" direction="ltr" dominant-baseline="text-before-edge">branches, tags, HEAD</text></g><g stroke-opacity="0.9" fill-opacity="0.9" stroke-linecap="round" transform="translate(566 934) rotate(0 75 25)"><path d="M12.5 0 C52.17 0, 91.84 0, 137.5 0 C145.83 0, 150 4.17, 150 12.5 C150 22.5, 150 32.49, 150 37.5 C150 45.83, 145.83 50, 137.5 50 C97.61 50, 57.72 50, 12.5 50 C4.17 50, 0 45.83, 0 37.5 C0 30.27, 0 23.04, 0 12.5 C0 4.17, 4.17 0, 12.5 0" stroke="none" stroke-width="0" fill="#d0bfff"/><path d="M12.5 0 C61.73 0, 110.95 0, 137.5 0 M12.5 0 C42.29 0, 72.07 0, 137.5 0 M137.5 0 C145.83 0, 150 4.17, 150 12.5 M137.5 0 C145.83 0, 150 4.17, 150 12.5 M150 12.5 C150 21.65, 150 30.79, 150 37.5 M150 12.5 C150 18.55, 150 24.6, 150 37.5 M150 37.5 C150 45.83, 145.83 50, 137.5 50 M150 37.5 C150 45.83, 145.83 50, 137.5 50 M137.5 50 C96.06 50, 54.62 50, 12.5 50 M137.5 50 C92.7 50, 47.89 50, 12.5 50 M12.5 50 C4.17 50, 0 45.83, 0 37.5 M12.5 50 C4.17 50, 0 45.83, 0 37.5 M0 37.5 C0 30.48, 0 23.45, 0 12.5 M0 37.5 C0 28.1, 0 18.7, 0 12.5 M0 12.5 C0 4.17, 4.17 0, 12.5 0 M0 12.5 C0 4.17, 4.17 0, 12.5 0" stroke="#7048e8" stroke-width="1" fill="none"/></g><g stroke-opacity="0.9" fill-opacity="0.9" transform="translate(576 949) rotate(0 65 10)"><text x="65" y="0" font-family="Helvetica, Segoe UI Emoji" font-size="16px" fill="#7048e8" text-anchor="middle" style="white-space: pre;" direction="ltr" dominant-baseline="text-before-edge">SHA-1 (SIMD128)</text></g><g stroke-opacity="0.9" fill-opacity="0.9" stroke-linecap="round" transform="translate(824 934) rotate(0 75 25)"><path d="M12.5 0 C38.38 0, 64.26 0, 137.5 0 C145.83 0, 150 4.17, 150 12.5 C150 21.23, 150 29.97, 150 37.5 C150 45.83, 145.83 50, 137.5 50 C99.63 50, 61.76 50, 12.5 50 C4.17 50, 0 45.83, 0 37.5 C0 31.92, 0 26.34, 0 12.5 C0 4.17, 4.17 0, 12.5 0" stroke="none" stroke-width="0" fill="#d0bfff"/><path d="M12.5 0 C38.24 0, 63.99 0, 137.5 0 M12.5 0 C45.48 0, 78.47 0, 137.5 0 M137.5 0 C145.83 0, 150 4.17, 150 12.5 M137.5 0 C145.83 0, 150 4.17, 150 12.5 M150 12.5 C150 18.41, 150 24.32, 150 37.5 M150 12.5 C150 20.25, 150 28, 150 37.5 M150 37.5 C150 45.83, 145.83 50, 137.5 50 M150 37.5 C150 45.83, 145.83 50, 137.5 50 M137.5 50 C99.75 50, 61.99 50, 12.5 50 M137.5 50 C105.34 50, 73.17 50, 12.5 50 M12.5 50 C4.17 50, 0 45.83, 0 37.5 M12.5 50 C4.17 50, 0 45.83, 0 37.5 M0 37.5 C0 28.46, 0 19.43, 0 12.5 M0 37.5 C0 32.16, 0 26.81, 0 12.5 M0 12.5 C0 4.17, 4.17 0, 12.5 0 M0 12.5 C0 4.17, 4.17 0, 12.5 0" stroke="#7048e8" stroke-width="1" fill="none"/></g><g stroke-opacity="0.9" fill-opacity="0.9" transform="translate(834 949) rotate(0 65 10)"><text x="65" y="0" font-family="Helvetica, Segoe UI Emoji" font-size="16px" fill="#7048e8" text-anchor="middle" style="white-space: pre;" direction="ltr" dominant-baseline="text-before-edge">Packfile v2</text></g><g stroke-opacity="0.9" fill-opacity="0.9" stroke-linecap="round" transform="translate(298 929) rotate(0 80 30)"><path d="M15 0 C59.47 0, 103.95 0, 145 0 C155 0, 160 5, 160 15 C160 25.67, 160 36.33, 160 45 C160 55, 155 60, 145 60 C106.54 60, 68.07 60, 15 60 C5 60, 0 55, 0 45 C0 35.43, 0 25.86, 0 15 C0 5, 5 0, 15 0" stroke="none" stroke-width="0" fill="#b2f2bb"/><path d="M15 0 C54.41 0, 93.82 0, 145 0 M15 0 C53.26 0, 91.52 0, 145 0 M145 0 C155 0, 160 5, 160 15 M145 0 C155 0, 160 5, 160 15 M160 15 C160 23.96, 160 32.92, 160 45 M160 15 C160 24.82, 160 34.65, 160 45 M160 45 C160 55, 155 60, 145 60 M160 45 C160 55, 155 60, 145 60 M145 60 C118.96 60, 92.92 60, 15 60 M145 60 C111.05 60, 77.09 60, 15 60 M15 60 C5 60, 0 55, 0 45 M15 60 C5 60, 0 55, 0 45 M0 45 C0 37.29, 0 29.57, 0 15 M0 45 C0 34.22, 0 23.45, 0 15 M0 15 C0 5, 5 0, 15 0 M0 15 C0 5, 5 0, 15 0" stroke="#2f9e44" stroke-width="1" fill="none"/></g><g stroke-opacity="0.9" fill-opacity="0.9" transform="translate(308 949) rotate(0 70 10)"><text x="70" y="0" font-family="Helvetica, Segoe UI Emoji" font-size="16px" fill="#2f9e44" text-anchor="middle" style="white-space: pre;" direction="ltr" dominant-baseline="text-before-edge">metadata</text><text x="70" y="18.4" font-family="Helvetica, Segoe UI Emoji" font-size="16px" fill="#2f9e44" text-anchor="middle" style="white-space: pre;" direction="ltr" dominant-baseline="text-before-edge">repos, commits, perms</text></g><g stroke-opacity="0.9" fill-opacity="0.9" stroke-linecap="round" transform="translate(1082 934) rotate(0 75 25)"><path d="M12.5 0 C43.79 0, 75.08 0, 137.5 0 C145.83 0, 150 4.17, 150 12.5 C150 22.07, 150 31.65, 150 37.5 C150 45.83, 145.83 50, 137.5 50 C87.84 50, 38.17 50, 12.5 50 C4.17 50, 0 45.83, 0 37.5 C0 29.34, 0 21.18, 0 12.5 C0 4.17, 4.17 0, 12.5 0" stroke="none" stroke-width="0" fill="#d0bfff"/><path d="M12.5 0 C55.58 0, 98.67 0, 137.5 0 M12.5 0 C51.38 0, 90.26 0, 137.5 0 M137.5 0 C145.83 0, 150 4.17, 150 12.5 M137.5 0 C145.83 0, 150 4.17, 150 12.5 M150 12.5 C150 21.54, 150 30.58, 150 37.5 M150 12.5 C150 19.81, 150 27.12, 150 37.5 M150 37.5 C150 45.83, 145.83 50, 137.5 50 M150 37.5 C150 45.83, 145.83 50, 137.5 50 M137.5 50 C99.75 50, 62 50, 12.5 50 M137.5 50 C91.77 50, 46.04 50, 12.5 50 M12.5 50 C4.17 50, 0 45.83, 0 37.5 M12.5 50 C4.17 50, 0 45.83, 0 37.5 M0 37.5 C0 30.54, 0 23.57, 0 12.5 M0 37.5 C0 27.65, 0 17.8, 0 12.5 M0 12.5 C0 4.17, 4.17 0, 12.5 0 M0 12.5 C0 4.17, 4.17 0, 12.5 0" stroke="#7048e8" stroke-width="1" fill="none"/></g><g stroke-opacity="0.9" fill-opacity="0.9" transform="translate(1092 949) rotate(0 65 10)"><text x="65" y="0" font-family="Helvetica, Segoe UI Emoji" font-size="16px" fill="#7048e8" text-anchor="middle" style="white-space: pre;" direction="ltr" dominant-baseline="text-before-edge">Delta (SIMD)</text></g><g stroke-opacity="0.9" fill-opacity="0.9" stroke-linecap="round" transform="translate(1340 934) rotate(0 75 25)"><path d="M12.5 0 C41.37 0, 70.24 0, 137.5 0 C145.83 0, 150 4.17, 150 12.5 C150 21.7, 150 30.9, 150 37.5 C150 45.83, 145.83 50, 137.5 50 C107.51 50, 77.52 50, 12.5 50 C4.17 50, 0 45.83, 0 37.5 C0 30.74, 0 23.98, 0 12.5 C0 4.17, 4.17 0, 12.5 0" stroke="none" stroke-width="0" fill="#d0bfff"/><path d="M12.5 0 C37.7 0, 62.89 0, 137.5 0 M12.5 0 C38.45 0, 64.39 0, 137.5 0 M137.5 0 C145.83 0, 150 4.17, 150 12.5 M137.5 0 C145.83 0, 150 4.17, 150 12.5 M150 12.5 C150 22.2, 150 31.9, 150 37.5 M150 12.5 C150 20.43, 150 28.36, 150 37.5 M150 37.5 C150 45.83, 145.83 50, 137.5 50 M150 37.5 C150 45.83, 145.83 50, 137.5 50 M137.5 50 C110.48 50, 83.47 50, 12.5 50 M137.5 50 C97.65 50, 57.79 50, 12.5 50 M12.5 50 C4.17 50, 0 45.83, 0 37.5 M12.5 50 C4.17 50, 0 45.83, 0 37.5 M0 37.5 C0 28.45, 0 19.4, 0 12.5 M0 37.5 C0 31.28, 0 25.07, 0 12.5 M0 12.5 C0 4.17, 4.17 0, 12.5 0 M0 12.5 C0 4.17, 4.17 0, 12.5 0" stroke="#7048e8" stroke-width="1" fill="none"/></g><g stroke-opacity="0.9" fill-opacity="0.9" transform="translate(1350 949) rotate(0 65 10)"><text x="65" y="0" font-family="Helvetica, Segoe UI Emoji" font-size="16px" fill="#7048e8" text-anchor="middle" style="white-space: pre;" direction="ltr" dominant-baseline="text-before-edge">Zlib</text></g><g stroke-opacity="0.9" fill-opacity="0.9" stroke-linecap="round" transform="translate(1598 929) rotate(0 90 30)"><path d="M15 0 C74.05 0, 133.1 0, 165 0 C175 0, 180 5, 180 15 C180 21.71, 180 28.42, 180 45 C180 55, 175 60, 165 60 C130.69 60, 96.37 60, 15 60 C5 60, 0 55, 0 45 C0 34.37, 0 23.74, 0 15 C0 5, 5 0, 15 0" stroke="none" stroke-width="0" fill="#d0bfff"/><path d="M15 0 C56.84 0, 98.67 0, 165 0 M15 0 C61.21 0, 107.42 0, 165 0 M165 0 C175 0, 180 5, 180 15 M165 0 C175 0, 180 5, 180 15 M180 15 C180 25.22, 180 35.44, 180 45 M180 15 C180 25.13, 180 35.26, 180 45 M180 45 C180 55, 175 60, 165 60 M180 45 C180 55, 175 60, 165 60 M165 60 C112.47 60, 59.93 60, 15 60 M165 60 C129.03 60, 93.06 60, 15 60 M15 60 C5 60, 0 55, 0 45 M15 60 C5 60, 0 55, 0 45 M0 45 C0 34.93, 0 24.85, 0 15 M0 45 C0 36.84, 0 28.68, 0 15 M0 15 C0 5, 5 0, 15 0 M0 15 C0 5, 5 0, 15 0" stroke="#7048e8" stroke-width="1" fill="none"/></g><g stroke-opacity="0.9" fill-opacity="0.9" transform="translate(1608 949) rotate(0 80 10)"><text x="80" y="0" font-family="Helvetica, Segoe UI Emoji" font-size="16px" fill="#7048e8" text-anchor="middle" style="white-space: pre;" direction="ltr" dominant-baseline="text-before-edge">libgit2</text><text x="80" y="18.4" font-family="Helvetica, Segoe UI Emoji" font-size="16px" fill="#7048e8" text-anchor="middle" style="white-space: pre;" direction="ltr" dominant-baseline="text-before-edge">diff, blame, revwalk</text></g><g stroke-opacity="0.9" fill-opacity="0.9" stroke-linecap="round" transform="translate(1886 895) rotate(0 140 64)"><path d="M32 0 C84.84 0, 137.69 0, 248 0 C269.33 0, 280 10.67, 280 32 C280 54.03, 280 76.07, 280 96 C280 117.33, 269.33 128, 248 128 C162.18 128, 76.36 128, 32 128 C10.67 128, 0 117.33, 0 96 C0 71.12, 0 46.23, 0 32 C0 10.67, 10.67 0, 32 0" stroke="none" stroke-width="0" fill="#ffec99"/><path d="M32 0 C112.74 0, 193.48 0, 248 0 M32 0 C75.56 0, 119.12 0, 248 0 M248 0 C269.33 0, 280 10.67, 280 32 M248 0 C269.33 0, 280 10.67, 280 32 M280 32 C280 46.89, 280 61.78, 280 96 M280 32 C280 47.96, 280 63.92, 280 96 M280 96 C280 117.33, 269.33 128, 248 128 M280 96 C280 117.33, 269.33 128, 248 128 M248 128 C180.18 128, 112.37 128, 32 128 M248 128 C179.16 128, 110.31 128, 32 128 M32 128 C10.67 128, 0 117.33, 0 96 M32 128 C10.67 128, 0 117.33, 0 96 M0 96 C0 80.87, 0 65.75, 0 32 M0 96 C0 79.46, 0 62.92, 0 32 M0 32 C0 10.67, 10.67 0, 32 0 M0 32 C0 10.67, 10.67 0, 32 0" stroke="#f08c00" stroke-width="1" fill="none"/></g><g stroke-opacity="0.9" fill-opacity="0.9" transform="translate(1896 949) rotate(0 130 10)"><text x="130" y="0" font-family="Helvetica, Segoe UI Emoji" font-size="16px" fill="#f08c00" text-anchor="middle" style="white-space: pre;" direction="ltr" dominant-baseline="text-before-edge">☁️</text><text x="130" y="18.4" font-family="Helvetica, Segoe UI Emoji" font-size="16px" fill="#f08c00" text-anchor="middle" style="white-space: pre;" direction="ltr" dominant-baseline="text-before-edge">R2 Object Storage</text><text x="130" y="36.8" font-family="Helvetica, Segoe UI Emoji" font-size="16px" fill="#f08c00" text-anchor="middle" style="white-space: pre;" direction="ltr" dominant-baseline="text-before-edge">Git Objects (blobs, trees, commits)</text></g><g stroke-linecap="round"><g transform="translate(626 114) rotate(0 0 45.5)"><path d="M0 0 C0 15.17, 0 75.83, 0 91 M0 0 C0 15.17, 0 75.83, 0 91" stroke="#1971c2" stroke-width="2" fill="none"/></g><g transform="translate(626 114) rotate(0 0 45.5)"><path d="M-10.26 62.81 C-7.39 70.7, -4.52 78.59, 0 91 M-10.26 62.81 C-6.94 71.93, -3.62 81.06, 0 91" stroke="#1971c2" stroke-width="2" fill="none"/></g><g transform="translate(626 114) rotate(0 0 45.5)"><path d="M10.26 62.81 C7.39 70.7, 4.52 78.59, 0 91 M10.26 62.81 C6.94 71.93, 3.62 81.06, 0 91" stroke="#1971c2" stroke-width="2" fill="none"/></g></g><mask/><g transform="translate(552 154) rotate(0 29 10)"><text x="29" y="0" font-family="Virgil, Segoe UI Emoji" font-size="14px" fill="#1e1e1e" text-anchor="middle" style="white-space: pre;" direction="ltr" dominant-baseline="text-before-edge">HTTPS</text></g><g stroke-linecap="round"><g transform="translate(626 345) rotate(0 0 50.5)"><path d="M0 0 C0 16.83, 0 84.17, 0 101 M0 0 C0 16.83, 0 84.17, 0 101" stroke="#c92a2a" stroke-width="2" fill="none"/></g><g transform="translate(626 345) rotate(0 0 50.5)"><path d="M-10.26 72.81 C-6.98 81.82, -3.7 90.83, 0 101 M-10.26 72.81 C-7.44 80.57, -4.61 88.33, 0 101" stroke="#c92a2a" stroke-width="2" fill="none"/></g><g transform="translate(626 345) rotate(0 0 50.5)"><path d="M10.26 72.81 C6.98 81.82, 3.7 90.83, 0 101 M10.26 72.81 C7.44 80.57, 4.61 88.33, 0 101" stroke="#c92a2a" stroke-width="2" fill="none"/></g></g><mask/><g transform="translate(468 385) rotate(0 71 10)"><text x="71" y="0" font-family="Virgil, Segoe UI Emoji" font-size="14px" fill="#1e1e1e" text-anchor="middle" style="white-space: pre;" direction="ltr" dominant-baseline="text-before-edge">routes per-repo</text></g><g stroke-linecap="round"><g transform="translate(565 576) rotate(0 -66 57.5)"><path d="M0 0 C-22 19.17, -110 95.83, -132 115 M0 0 C-22 19.17, -110 95.83, -132 115" stroke="#2f9e44" stroke-width="2" fill="none"/></g><g transform="translate(565 576) rotate(0 -66 57.5)"><path d="M-117.48 88.75 C-121.95 96.81, -126.41 104.88, -132 115 M-117.48 88.75 C-122.56 97.93, -127.64 107.12, -132 115" stroke="#2f9e44" stroke-width="2" fill="none"/></g><g transform="translate(565 576) rotate(0 -66 57.5)"><path d="M-104 104.22 C-112.61 107.53, -121.21 110.84, -132 115 M-104 104.22 C-113.8 107.99, -123.59 111.76, -132 115" stroke="#2f9e44" stroke-width="2" fill="none"/></g></g><mask/><g transform="translate(493.6 625) rotate(0 58.400000000000034 10)"><text x="58.400000000000006" y="0" font-family="Virgil, Segoe UI Emoji" font-size="14px" fill="#1e1e1e" text-anchor="middle" style="white-space: pre;" direction="ltr" dominant-baseline="text-before-edge">reads/writes</text></g><g stroke-linecap="round"><g transform="translate(715 559) rotate(0 179 73)"><path d="M0 0 C59.67 24.33, 298.33 121.67, 358 146 M0 0 C59.67 24.33, 298.33 121.67, 358 146" stroke="#7048e8" stroke-width="2" fill="none"/></g><g transform="translate(715 559) rotate(0 179 73)"><path d="M328.02 144.86 C339.52 145.29, 351.02 145.73, 358 146 M328.02 144.86 C337.71 145.23, 347.4 145.6, 358 146" stroke="#7048e8" stroke-width="2" fill="none"/></g><g transform="translate(715 559) rotate(0 179 73)"><path d="M335.77 125.85 C344.3 133.58, 352.83 141.31, 358 146 M335.77 125.85 C342.95 132.36, 350.14 138.87, 358 146" stroke="#7048e8" stroke-width="2" fill="none"/></g></g><mask/><g transform="translate(915 625) rotate(0 71 10)"><text x="71" y="0" font-family="Virgil, Segoe UI Emoji" font-size="14px" fill="#1e1e1e" text-anchor="middle" style="white-space: pre;" direction="ltr" dominant-baseline="text-before-edge">encodes/decodes</text></g><g stroke-linecap="round"><g transform="translate(328 782) rotate(0 -88.5 71.5)"><path d="M0 0 C-29.5 23.83, -147.5 119.17, -177 143" stroke="#2f9e44" stroke-width="2.5" fill="none" stroke-dasharray="8 10"/></g></g><mask/><g stroke-linecap="round"><g transform="translate(378 793) rotate(0 0 62.5)"><path d="M0 0 C0 20.83, 0 104.17, 0 125" stroke="#2f9e44" stroke-width="2.5" fill="none" stroke-dasharray="8 10"/></g></g><mask/><g stroke-linecap="round"><g transform="translate(1083 771) rotate(0 -195.5 81)"><path d="M0 0 C-52.17 20.67, -247.83 97, -313 124 C-378.17 151, -378 155.67, -391 162" stroke="#7048e8" stroke-width="2.5" fill="none" stroke-dasharray="8 10"/></g></g><mask/><g stroke-linecap="round"><g transform="translate(1106 784) rotate(0 -86 72)"><path d="M0 0 C-28.67 24, -143.33 120, -172 144" stroke="#7048e8" stroke-width="2.5" fill="none" stroke-dasharray="8 10"/></g></g><mask/><g stroke-linecap="round"><g transform="translate(1157 793) rotate(0 0 65)"><path d="M0 0 C0 21.67, 0 108.33, 0 130" stroke="#7048e8" stroke-width="2.5" fill="none" stroke-dasharray="8 10"/></g></g><mask/><g stroke-linecap="round"><g transform="translate(1207 784) rotate(0 86 72)"><path d="M0 0 C28.67 24, 143.33 120, 172 144" stroke="#7048e8" stroke-width="2.5" fill="none" stroke-dasharray="8 10"/></g></g><mask/><g stroke-linecap="round"><g transform="translate(1230 771) rotate(0 197 79.5)"><path d="M0 0 C52.33 20.67, 248.33 97.5, 314 124 C379.67 150.5, 380.67 153.17, 394 159" stroke="#7048e8" stroke-width="2.5" fill="none" stroke-dasharray="8 10"/></g></g><mask/><g stroke-linecap="round"><g transform="translate(1240 761) rotate(0 330 79)"><path d="M0 0 C97.5 22.33, 475 107.67, 585 134 C695 160.33, 647.5 154, 660 158 M0 0 C97.5 22.33, 475 107.67, 585 134 C695 160.33, 647.5 154, 660 158" stroke="#f08c00" stroke-width="2" fill="none"/></g><g transform="translate(1240 761) rotate(0 330 79)"><path d="M638.76 136.82 C647.04 145.08, 655.32 153.34, 660 158 M638.76 136.82 C646.83 144.87, 654.91 152.93, 660 158" stroke="#f08c00" stroke-width="2" fill="none"/></g><g transform="translate(1240 761) rotate(0 330 79)"><path d="M657.34 128.12 C658.38 139.77, 659.42 151.42, 660 158 M657.34 128.12 C658.35 139.48, 659.36 150.84, 660 158" stroke="#f08c00" stroke-width="2" fill="none"/></g></g><mask/><g transform="translate(1619.2 832) rotate(0 87.79999999999995 10)"><text x="87.8" y="0" font-family="Virgil, Segoe UI Emoji" font-size="14px" fill="#1e1e1e" text-anchor="middle" style="white-space: pre;" direction="ltr" dominant-baseline="text-before-edge">store/fetch objects</text></g><g stroke-opacity="0.6" fill-opacity="0.6" stroke-linecap="round" transform="translate(10 413) rotate(0 894 298)"><path d="M32 0 C492.79 0, 953.58 0, 1756 0 M1756 0 C1777.33 0, 1788 10.67, 1788 32 M1788 32 C1788 193.3, 1788 354.61, 1788 564 M1788 564 C1788 585.33, 1777.33 596, 1756 596 M1756 596 C1320.17 596, 884.35 596, 32 596 M32 596 C10.67 596, 0 585.33, 0 564 M0 564 C0 378.06, 0 192.13, 0 32 M0 32 C0 10.67, 10.67 0, 32 0" stroke="#868e96" stroke-width="1.5" fill="none" stroke-dasharray="8 9"/></g><g stroke-opacity="0.6" fill-opacity="0.6" transform="translate(20 418) rotate(0 104.60000000000001 10)"><text x="0" y="0" font-family="Virgil, Segoe UI Emoji" font-size="14px" fill="#868e96" text-anchor="start" style="white-space: pre;" direction="ltr" dominant-baseline="text-before-edge">Per-Repo Durable Object</text></g></svg>