<svg version="1.1" xmlns="http://www.w3.org/2000/svg" viewBox="0 0 1053 1133" width="1053" height="1133">
  <!-- svg-source:excalidraw -->
  
  <defs>
    <style class="style-fonts">
      @font-face {
        font-family: "Virgil";
        src: url("https://unpkg.com/@excalidraw/excalidraw@undefined/dist/excalidraw-assets/Virgil.woff2");
      }
      @font-face {
        font-family: "Cascadia";
        src: url("https://unpkg.com/@excalidraw/excalidraw@undefined/dist/excalidraw-assets/Cascadia.woff2");
      }
      @font-face {
        font-family: "Assistant";
        src: url("https://unpkg.com/@excalidraw/excalidraw@undefined/dist/excalidraw-assets/Assistant-Regular.woff2");
      }
    </style>
    
  </defs>
  <rect x="0" y="0" width="1053" height="1133" fill="#ffffff"/><g stroke-opacity="0.9" fill-opacity="0.9" stroke-linecap="round" transform="translate(298 10) rotate(0 90 64)"><path d="M32 0 C68.01 0, 104.01 0, 148 0 C169.33 0, 180 10.67, 180 32 C180 48.46, 180 64.93, 180 96 C180 117.33, 169.33 128, 148 128 C113.45 128, 78.9 128, 32 128 C10.67 128, 0 117.33, 0 96 C0 79.59, 0 63.18, 0 32 C0 10.67, 10.67 0, 32 0" stroke="none" stroke-width="0" fill="#e7f5ff"/><path d="M32 0 C56.59 0, 81.18 0, 148 0 M32 0 C67.81 0, 103.62 0, 148 0 M148 0 C169.33 0, 180 10.67, 180 32 M148 0 C169.33 0, 180 10.67, 180 32 M180 32 C180 52.71, 180 73.41, 180 96 M180 32 C180 56.58, 180 81.17, 180 96 M180 96 C180 117.33, 169.33 128, 148 128 M180 96 C180 117.33, 169.33 128, 148 128 M148 128 C104.79 128, 61.57 128, 32 128 M148 128 C108.15 128, 68.3 128, 32 128 M32 128 C10.67 128, 0 117.33, 0 96 M32 128 C10.67 128, 0 117.33, 0 96 M0 96 C0 72.29, 0 48.57, 0 32 M0 96 C0 83.05, 0 70.09, 0 32 M0 32 C0 10.67, 10.67 0, 32 0 M0 32 C0 10.67, 10.67 0, 32 0" stroke="#1971c2" stroke-width="1" fill="none"/></g><g stroke-opacity="0.9" fill-opacity="0.9" transform="translate(308 64) rotate(0 80 10)"><text x="80" y="0" font-family="Helvetica, Segoe UI Emoji" font-size="16px" fill="#1971c2" text-anchor="middle" style="white-space: pre;" direction="ltr" dominant-baseline="text-before-edge">👤</text><text x="80" y="18.4" font-family="Helvetica, Segoe UI Emoji" font-size="16px" fill="#1971c2" text-anchor="middle" style="white-space: pre;" direction="ltr" dominant-baseline="text-before-edge">Git Client</text><text x="80" y="36.8" font-family="Helvetica, Segoe UI Emoji" font-size="16px" fill="#1971c2" text-anchor="middle" style="white-space: pre;" direction="ltr" dominant-baseline="text-before-edge">(git CLI / SSH)</text></g><g stroke-opacity="0.9" fill-opacity="0.9" stroke-linecap="round" transform="translate(268 241) rotate(0 120 64)"><path d="M32 0 C81.79 0, 131.59 0, 208 0 C229.33 0, 240 10.67, 240 32 C240 55.52, 240 79.04, 240 96 C240 117.33, 229.33 128, 208 128 C168.85 128, 129.69 128, 32 128 C10.67 128, 0 117.33, 0 96 C0 71.95, 0 47.9, 0 32 C0 10.67, 10.67 0, 32 0" stroke="none" stroke-width="0" fill="#d0bfff"/><path d="M32 0 C94.61 0, 157.22 0, 208 0 M32 0 C93.48 0, 154.96 0, 208 0 M208 0 C229.33 0, 240 10.67, 240 32 M208 0 C229.33 0, 240 10.67, 240 32 M240 32 C240 45.62, 240 59.25, 240 96 M240 32 C240 44.9, 240 57.8, 240 96 M240 96 C240 117.33, 229.33 128, 208 128 M240 96 C240 117.33, 229.33 128, 208 128 M208 128 C171.72 128, 135.44 128, 32 128 M208 128 C142.83 128, 77.66 128, 32 128 M32 128 C10.67 128, 0 117.33, 0 96 M32 128 C10.67 128, 0 117.33, 0 96 M0 96 C0 80.89, 0 65.78, 0 32 M0 96 C0 74.28, 0 52.56, 0 32 M0 32 C0 10.67, 10.67 0, 32 0 M0 32 C0 10.67, 10.67 0, 32 0" stroke="#7048e8" stroke-width="1" fill="none"/></g><g stroke-opacity="0.9" fill-opacity="0.9" transform="translate(278 295) rotate(0 110 10)"><text x="110" y="0" font-family="Helvetica, Segoe UI Emoji" font-size="16px" fill="#7048e8" text-anchor="middle" style="white-space: pre;" direction="ltr" dominant-baseline="text-before-edge">☁️</text><text x="110" y="18.4" font-family="Helvetica, Segoe UI Emoji" font-size="16px" fill="#7048e8" text-anchor="middle" style="white-space: pre;" direction="ltr" dominant-baseline="text-before-edge">Cloudflare Worker</text><text x="110" y="36.8" font-family="Helvetica, Segoe UI Emoji" font-size="16px" fill="#7048e8" text-anchor="middle" style="white-space: pre;" direction="ltr" dominant-baseline="text-before-edge">(TypeScript)</text></g><g stroke-opacity="0.9" fill-opacity="0.9" stroke-linecap="round" transform="translate(30 493) rotate(0 80 40)"><path d="M20 0 C54.45 0, 88.91 0, 140 0 C153.33 0, 160 6.67, 160 20 C160 35.37, 160 50.74, 160 60 C160 73.33, 153.33 80, 140 80 C110.73 80, 81.46 80, 20 80 C6.67 80, 0 73.33, 0 60 C0 49.64, 0 39.28, 0 20 C0 6.67, 6.67 0, 20 0" stroke="none" stroke-width="0" fill="#d0bfff"/><path d="M20 0 C54.03 0, 88.06 0, 140 0 M20 0 C61.31 0, 102.62 0, 140 0 M140 0 C153.33 0, 160 6.67, 160 20 M140 0 C153.33 0, 160 6.67, 160 20 M160 20 C160 35.08, 160 50.16, 160 60 M160 20 C160 32.65, 160 45.31, 160 60 M160 60 C160 73.33, 153.33 80, 140 80 M160 60 C160 73.33, 153.33 80, 140 80 M140 80 C95.09 80, 50.18 80, 20 80 M140 80 C111.28 80, 82.56 80, 20 80 M20 80 C6.67 80, 0 73.33, 0 60 M20 80 C6.67 80, 0 73.33, 0 60 M0 60 C0 45.93, 0 31.86, 0 20 M0 60 C0 45.03, 0 30.06, 0 20 M0 20 C0 6.67, 6.67 0, 20 0 M0 20 C0 6.67, 6.67 0, 20 0" stroke="#7048e8" stroke-width="1" fill="none"/></g><g stroke-opacity="0.9" fill-opacity="0.9" transform="translate(40 523) rotate(0 70 10)"><text x="70" y="0" font-family="Helvetica, Segoe UI Emoji" font-size="16px" fill="#7048e8" text-anchor="middle" style="white-space: pre;" direction="ltr" dominant-baseline="text-before-edge">info-refs</text></g><g stroke-opacity="0.9" fill-opacity="0.9" stroke-linecap="round" transform="translate(298 481) rotate(0 90 52)"><path d="M26 0 C63.87 0, 101.74 0, 154 0 C171.33 0, 180 8.67, 180 26 C180 41.13, 180 56.27, 180 78 C180 95.33, 171.33 104, 154 104 C111.71 104, 69.41 104, 26 104 C8.67 104, 0 95.33, 0 78 C0 65.93, 0 53.86, 0 26 C0 8.67, 8.67 0, 26 0" stroke="none" stroke-width="0" fill="#d0bfff"/><path d="M26 0 C71.16 0, 116.32 0, 154 0 M26 0 C71.22 0, 116.43 0, 154 0 M154 0 C171.33 0, 180 8.67, 180 26 M154 0 C171.33 0, 180 8.67, 180 26 M180 26 C180 43.24, 180 60.49, 180 78 M180 26 C180 43.76, 180 61.52, 180 78 M180 78 C180 95.33, 171.33 104, 154 104 M180 78 C180 95.33, 171.33 104, 154 104 M154 104 C111.03 104, 68.06 104, 26 104 M154 104 C115.33 104, 76.65 104, 26 104 M26 104 C8.67 104, 0 95.33, 0 78 M26 104 C8.67 104, 0 95.33, 0 78 M0 78 C0 57.96, 0 37.92, 0 26 M0 78 C0 65.63, 0 53.25, 0 26 M0 26 C0 8.67, 8.67 0, 26 0 M0 26 C0 8.67, 8.67 0, 26 0" stroke="#7048e8" stroke-width="1" fill="none"/></g><g stroke-opacity="0.9" fill-opacity="0.9" transform="translate(308 523) rotate(0 80 10)"><text x="80" y="0" font-family="Helvetica, Segoe UI Emoji" font-size="16px" fill="#7048e8" text-anchor="middle" style="white-space: pre;" direction="ltr" dominant-baseline="text-before-edge">upload-pack</text><text x="80" y="18.4" font-family="Helvetica, Segoe UI Emoji" font-size="16px" fill="#7048e8" text-anchor="middle" style="white-space: pre;" direction="ltr" dominant-baseline="text-before-edge">(clone/fetch)</text></g><g stroke-opacity="0.9" fill-opacity="0.9" stroke-linecap="round" transform="translate(586 481) rotate(0 90 52)"><path d="M26 0 C64.25 0, 102.5 0, 154 0 C171.33 0, 180 8.67, 180 26 C180 41.13, 180 56.25, 180 78 C180 95.33, 171.33 104, 154 104 C111.83 104, 69.65 104, 26 104 C8.67 104, 0 95.33, 0 78 C0 64.93, 0 51.86, 0 26 C0 8.67, 8.67 0, 26 0" stroke="none" stroke-width="0" fill="#d0bfff"/><path d="M26 0 C74.53 0, 123.06 0, 154 0 M26 0 C69.54 0, 113.09 0, 154 0 M154 0 C171.33 0, 180 8.67, 180 26 M154 0 C171.33 0, 180 8.67, 180 26 M180 26 C180 41.3, 180 56.59, 180 78 M180 26 C180 39.66, 180 53.33, 180 78 M180 78 C180 95.33, 171.33 104, 154 104 M180 78 C180 95.33, 171.33 104, 154 104 M154 104 C116.91 104, 79.82 104, 26 104 M154 104 C122.03 104, 90.06 104, 26 104 M26 104 C8.67 104, 0 95.33, 0 78 M26 104 C8.67 104, 0 95.33, 0 78 M0 78 C0 66.88, 0 55.75, 0 26 M0 78 C0 59.81, 0 41.61, 0 26 M0 26 C0 8.67, 8.67 0, 26 0 M0 26 C0 8.67, 8.67 0, 26 0" stroke="#7048e8" stroke-width="1" fill="none"/></g><g stroke-opacity="0.9" fill-opacity="0.9" transform="translate(596 523) rotate(0 80 10)"><text x="80" y="0" font-family="Helvetica, Segoe UI Emoji" font-size="16px" fill="#7048e8" text-anchor="middle" style="white-space: pre;" direction="ltr" dominant-baseline="text-before-edge">receive-pack</text><text x="80" y="18.4" font-family="Helvetica, Segoe UI Emoji" font-size="16px" fill="#7048e8" text-anchor="middle" style="white-space: pre;" direction="ltr" dominant-baseline="text-before-edge">(push)</text></g><g stroke-opacity="0.9" fill-opacity="0.9" stroke-linecap="round" transform="translate(198 688) rotate(0 190 76)"><path d="M32 0 C111.83 0, 191.67 0, 348 0 C369.33 0, 380 10.67, 380 32 C380 63.1, 380 94.21, 380 120 C380 141.33, 369.33 152, 348 152 C246.02 152, 144.04 152, 32 152 C10.67 152, 0 141.33, 0 120 C0 99.75, 0 79.51, 0 32 C0 10.67, 10.67 0, 32 0" stroke="none" stroke-width="0" fill="#e599f7"/><path d="M32 0 C157.99 0, 283.99 0, 348 0 M32 0 C105.05 0, 178.1 0, 348 0 M348 0 C369.33 0, 380 10.67, 380 32 M348 0 C369.33 0, 380 10.67, 380 32 M380 32 C380 53.15, 380 74.3, 380 120 M380 32 C380 57.81, 380 83.63, 380 120 M380 120 C380 141.33, 369.33 152, 348 152 M380 120 C380 141.33, 369.33 152, 348 152 M348 152 C256.69 152, 165.38 152, 32 152 M348 152 C222.42 152, 96.83 152, 32 152 M32 152 C10.67 152, 0 141.33, 0 120 M32 152 C10.67 152, 0 141.33, 0 120 M0 120 C0 92.81, 0 65.63, 0 32 M0 120 C0 87.42, 0 54.85, 0 32 M0 32 C0 10.67, 10.67 0, 32 0 M0 32 C0 10.67, 10.67 0, 32 0" stroke="#9c36b5" stroke-width="1" fill="none"/></g><g stroke-opacity="0.9" fill-opacity="0.9" transform="translate(208 754) rotate(0 180 10)"><text x="180" y="0" font-family="Helvetica, Segoe UI Emoji" font-size="16px" fill="#9c36b5" text-anchor="middle" style="white-space: pre;" direction="ltr" dominant-baseline="text-before-edge">⚡</text><text x="180" y="18.4" font-family="Helvetica, Segoe UI Emoji" font-size="16px" fill="#9c36b5" text-anchor="middle" style="white-space: pre;" direction="ltr" dominant-baseline="text-before-edge">Zig WASM Engine (791KB)</text><text x="180" y="36.8" font-family="Helvetica, Segoe UI Emoji" font-size="16px" fill="#9c36b5" text-anchor="middle" style="white-space: pre;" direction="ltr" dominant-baseline="text-before-edge">SHA-1 · zlib · packfile · delta</text><text x="180" y="55.199999999999996" font-family="Helvetica, Segoe UI Emoji" font-size="16px" fill="#9c36b5" text-anchor="middle" style="white-space: pre;" direction="ltr" dominant-baseline="text-before-edge">libgit2 (diff, blame, revwalk)</text></g><g stroke-opacity="0.9" fill-opacity="0.9" stroke-linecap="round" transform="translate(372 952) rotate(0 90 76)"><path d="M32 0 C64.04 0, 96.07 0, 148 0 C169.33 0, 180 10.67, 180 32 C180 62.25, 180 92.51, 180 120 C180 141.33, 169.33 152, 148 152 C105.83 152, 63.67 152, 32 152 C10.67 152, 0 141.33, 0 120 C0 93.71, 0 67.42, 0 32 C0 10.67, 10.67 0, 32 0" stroke="none" stroke-width="0" fill="#ffec99"/><path d="M32 0 C72.07 0, 112.14 0, 148 0 M32 0 C56.07 0, 80.14 0, 148 0 M148 0 C169.33 0, 180 10.67, 180 32 M148 0 C169.33 0, 180 10.67, 180 32 M180 32 C180 62.97, 180 93.95, 180 120 M180 32 C180 56.66, 180 81.31, 180 120 M180 120 C180 141.33, 169.33 152, 148 152 M180 120 C180 141.33, 169.33 152, 148 152 M148 152 C107.04 152, 66.07 152, 32 152 M148 152 C105.58 152, 63.16 152, 32 152 M32 152 C10.67 152, 0 141.33, 0 120 M32 152 C10.67 152, 0 141.33, 0 120 M0 120 C0 101.11, 0 82.21, 0 32 M0 120 C0 86.47, 0 52.95, 0 32 M0 32 C0 10.67, 10.67 0, 32 0 M0 32 C0 10.67, 10.67 0, 32 0" stroke="#f08c00" stroke-width="1" fill="none"/></g><g stroke-opacity="0.9" fill-opacity="0.9" transform="translate(382 1018) rotate(0 80 10)"><text x="80" y="0" font-family="Helvetica, Segoe UI Emoji" font-size="16px" fill="#f08c00" text-anchor="middle" style="white-space: pre;" direction="ltr" dominant-baseline="text-before-edge">🗄️</text><text x="80" y="18.4" font-family="Helvetica, Segoe UI Emoji" font-size="16px" fill="#f08c00" text-anchor="middle" style="white-space: pre;" direction="ltr" dominant-baseline="text-before-edge">R2</text><text x="80" y="36.8" font-family="Helvetica, Segoe UI Emoji" font-size="16px" fill="#f08c00" text-anchor="middle" style="white-space: pre;" direction="ltr" dominant-baseline="text-before-edge">Git Objects +</text><text x="80" y="55.199999999999996" font-family="Helvetica, Segoe UI Emoji" font-size="16px" fill="#f08c00" text-anchor="middle" style="white-space: pre;" direction="ltr" dominant-baseline="text-before-edge">Worktree Files</text></g><g stroke-opacity="0.9" fill-opacity="0.9" stroke-linecap="round" transform="translate(660 952) rotate(0 120 76)"><path d="M32 0 C97.81 0, 163.61 0, 208 0 C229.33 0, 240 10.67, 240 32 C240 51.69, 240 71.38, 240 120 C240 141.33, 229.33 152, 208 152 C161.36 152, 114.72 152, 32 152 C10.67 152, 0 141.33, 0 120 C0 89.35, 0 58.7, 0 32 C0 10.67, 10.67 0, 32 0" stroke="none" stroke-width="0" fill="#b2f2bb"/><path d="M32 0 C82.85 0, 133.71 0, 208 0 M32 0 C70.18 0, 108.35 0, 208 0 M208 0 C229.33 0, 240 10.67, 240 32 M208 0 C229.33 0, 240 10.67, 240 32 M240 32 C240 53.2, 240 74.4, 240 120 M240 32 C240 62.81, 240 93.62, 240 120 M240 120 C240 141.33, 229.33 152, 208 152 M240 120 C240 141.33, 229.33 152, 208 152 M208 152 C163.75 152, 119.5 152, 32 152 M208 152 C156.54 152, 105.08 152, 32 152 M32 152 C10.67 152, 0 141.33, 0 120 M32 152 C10.67 152, 0 141.33, 0 120 M0 120 C0 91.95, 0 63.9, 0 32 M0 120 C0 86.59, 0 53.18, 0 32 M0 32 C0 10.67, 10.67 0, 32 0 M0 32 C0 10.67, 10.67 0, 32 0" stroke="#2f9e44" stroke-width="1" fill="none"/></g><g stroke-opacity="0.9" fill-opacity="0.9" transform="translate(670 1018) rotate(0 110 10)"><text x="110" y="0" font-family="Helvetica, Segoe UI Emoji" font-size="16px" fill="#2f9e44" text-anchor="middle" style="white-space: pre;" direction="ltr" dominant-baseline="text-before-edge">🔒</text><text x="110" y="18.4" font-family="Helvetica, Segoe UI Emoji" font-size="16px" fill="#2f9e44" text-anchor="middle" style="white-space: pre;" direction="ltr" dominant-baseline="text-before-edge">Durable Objects</text><text x="110" y="36.8" font-family="Helvetica, Segoe UI Emoji" font-size="16px" fill="#2f9e44" text-anchor="middle" style="white-space: pre;" direction="ltr" dominant-baseline="text-before-edge">(per-repo SQLite)</text><text x="110" y="55.199999999999996" font-family="Helvetica, Segoe UI Emoji" font-size="16px" fill="#2f9e44" text-anchor="middle" style="white-space: pre;" direction="ltr" dominant-baseline="text-before-edge">Refs · Commits · Metadata</text></g><g stroke-opacity="0.9" fill-opacity="0.9" stroke-linecap="round" transform="translate(703 700) rotate(0 170 64)"><path d="M32 0 C103.64 0, 175.28 0, 308 0 C329.33 0, 340 10.67, 340 32 C340 47.43, 340 62.86, 340 96 C340 117.33, 329.33 128, 308 128 C249.5 128, 191 128, 32 128 C10.67 128, 0 117.33, 0 96 C0 79.87, 0 63.75, 0 32 C0 10.67, 10.67 0, 32 0" stroke="none" stroke-width="0" fill="#a5d8ff"/><path d="M32 0 C112.49 0, 192.98 0, 308 0 M32 0 C135.13 0, 238.26 0, 308 0 M308 0 C329.33 0, 340 10.67, 340 32 M308 0 C329.33 0, 340 10.67, 340 32 M340 32 C340 49.86, 340 67.72, 340 96 M340 32 C340 50.64, 340 69.28, 340 96 M340 96 C340 117.33, 329.33 128, 308 128 M340 96 C340 117.33, 329.33 128, 308 128 M308 128 C232.44 128, 156.87 128, 32 128 M308 128 C232.15 128, 156.3 128, 32 128 M32 128 C10.67 128, 0 117.33, 0 96 M32 128 C10.67 128, 0 117.33, 0 96 M0 96 C0 77.11, 0 58.23, 0 32 M0 96 C0 78.06, 0 60.13, 0 32 M0 32 C0 10.67, 10.67 0, 32 0 M0 32 C0 10.67, 10.67 0, 32 0" stroke="#1971c2" stroke-width="1" fill="none"/></g><g stroke-opacity="0.9" fill-opacity="0.9" transform="translate(713 754) rotate(0 160 10)"><text x="160" y="0" font-family="Helvetica, Segoe UI Emoji" font-size="16px" fill="#1971c2" text-anchor="middle" style="white-space: pre;" direction="ltr" dominant-baseline="text-before-edge">vinext UI</text><text x="160" y="18.4" font-family="Helvetica, Segoe UI Emoji" font-size="16px" fill="#1971c2" text-anchor="middle" style="white-space: pre;" direction="ltr" dominant-baseline="text-before-edge">(React Server Components)</text><text x="160" y="36.8" font-family="Helvetica, Segoe UI Emoji" font-size="16px" fill="#1971c2" text-anchor="middle" style="white-space: pre;" direction="ltr" dominant-baseline="text-before-edge">Repo browser · Commits · Files</text></g><g stroke-linecap="round"><g transform="translate(388 138) rotate(0 0 45.5)"><path d="M0 0 C0 29.6, 0 59.2, 0 91 M0 0 C0 31.73, 0 63.46, 0 91" stroke="#7048e8" stroke-width="2" fill="none"/></g><g transform="translate(388 138) rotate(0 0 45.5)"><path d="M-10.26 62.81 C-6.92 71.98, -3.59 81.15, 0 91 M-10.26 62.81 C-6.68 72.64, -3.1 82.47, 0 91" stroke="#7048e8" stroke-width="2" fill="none"/></g><g transform="translate(388 138) rotate(0 0 45.5)"><path d="M10.26 62.81 C6.92 71.98, 3.59 81.15, 0 91 M10.26 62.81 C6.68 72.64, 3.1 82.47, 0 91" stroke="#7048e8" stroke-width="2" fill="none"/></g></g><mask/><g transform="translate(379.8 177) rotate(0 54.20000000000002 10)"><text x="54.2" y="0" font-family="Virgil, Segoe UI Emoji" font-size="14px" fill="#1e1e1e" text-anchor="middle" style="white-space: pre;" direction="ltr" dominant-baseline="text-before-edge">HTTPS / SSH</text></g><g stroke-linecap="round"><g transform="translate(322 359) rotate(0 -81.5 66)"><path d="M0 0 C-63.01 51.02, -126.01 102.05, -163 132" stroke="#7048e8" stroke-width="2.5" fill="none" stroke-dasharray="8 10"/></g><g transform="translate(322 359) rotate(0 -81.5 66)"><path d="M-147.55 106.28 C-153.52 116.22, -159.49 126.17, -163 132" stroke="#7048e8" stroke-width="2.5" fill="none"/></g><g transform="translate(322 359) rotate(0 -81.5 66)"><path d="M-134.63 122.23 C-145.6 126.01, -156.56 129.78, -163 132" stroke="#7048e8" stroke-width="2.5" fill="none"/></g></g><mask/><g transform="translate(248.4 408) rotate(0 41.60000000000001 10)"><text x="41.6" y="0" font-family="Virgil, Segoe UI Emoji" font-size="14px" fill="#1e1e1e" text-anchor="middle" style="white-space: pre;" direction="ltr" dominant-baseline="text-before-edge">GET refs</text></g><g stroke-linecap="round"><g transform="translate(345 369) rotate(0 21.5 50.5)"><path d="M0 0 C15.37 36.1, 30.74 72.21, 43 101 M0 0 C15.7 36.88, 31.4 73.75, 43 101" stroke="#7048e8" stroke-width="2" fill="none"/></g><g transform="translate(345 369) rotate(0 21.5 50.5)"><path d="M22.52 79.08 C29.84 86.92, 37.16 94.75, 43 101 M22.52 79.08 C30 87.08, 37.47 95.09, 43 101" stroke="#7048e8" stroke-width="2" fill="none"/></g><g transform="translate(345 369) rotate(0 21.5 50.5)"><path d="M41.4 71.04 C41.97 81.75, 42.54 92.46, 43 101 M41.4 71.04 C41.98 81.98, 42.57 92.92, 43 101" stroke="#7048e8" stroke-width="2" fill="none"/></g></g><mask/><g transform="translate(379.2 408) rotate(0 24.80000000000001 10)"><text x="24.8" y="0" font-family="Virgil, Segoe UI Emoji" font-size="14px" fill="#1e1e1e" text-anchor="middle" style="white-space: pre;" direction="ltr" dominant-baseline="text-before-edge">POST</text></g><g stroke-linecap="round"><g transform="translate(497 358) rotate(0 58.5 63)"><path d="M0 0 C35.61 38.35, 71.22 76.7, 117 126 M0 0 C23.6 25.42, 47.21 50.84, 117 126" stroke="#7048e8" stroke-width="2" fill="none"/></g><g transform="translate(497 358) rotate(0 58.5 63)"><path d="M90.3 112.32 C98.43 116.49, 106.55 120.65, 117 126 M90.3 112.32 C95.69 115.08, 101.07 117.84, 117 126" stroke="#7048e8" stroke-width="2" fill="none"/></g><g transform="translate(497 358) rotate(0 58.5 63)"><path d="M105.34 98.36 C108.89 106.77, 112.44 115.18, 117 126 M105.34 98.36 C107.69 103.94, 110.04 109.51, 117 126" stroke="#7048e8" stroke-width="2" fill="none"/></g></g><mask/><g transform="translate(532.2 408) rotate(0 24.80000000000001 10)"><text x="24.8" y="0" font-family="Virgil, Segoe UI Emoji" font-size="14px" fill="#1e1e1e" text-anchor="middle" style="white-space: pre;" direction="ltr" dominant-baseline="text-before-edge">POST</text></g><g stroke-linecap="round"><g transform="translate(151 568) rotate(0 72.5 60)"><path d="M0 0 C43.86 36.3, 87.72 72.6, 145 120" stroke="#9c36b5" stroke-width="2.5" fill="none" stroke-dasharray="8 10"/></g><g transform="translate(151 568) rotate(0 72.5 60)"><path d="M116.74 109.93 C125.29 112.98, 133.84 116.02, 145 120" stroke="#9c36b5" stroke-width="2.5" fill="none"/></g><g transform="translate(151 568) rotate(0 72.5 60)"><path d="M129.82 94.12 C134.41 101.95, 139 109.78, 145 120" stroke="#9c36b5" stroke-width="2.5" fill="none"/></g></g><mask/><g stroke-linecap="round"><g transform="translate(388 585) rotate(0 0 45.5)"><path d="M0 0 C0 18.28, 0 36.57, 0 91 M0 0 C0 20.94, 0 41.88, 0 91" stroke="#9c36b5" stroke-width="2" fill="none"/></g><g transform="translate(388 585) rotate(0 0 45.5)"><path d="M-10.26 62.81 C-8.2 68.47, -6.14 74.14, 0 91 M-10.26 62.81 C-7.9 69.3, -5.54 75.78, 0 91" stroke="#9c36b5" stroke-width="2" fill="none"/></g><g transform="translate(388 585) rotate(0 0 45.5)"><path d="M10.26 62.81 C8.2 68.47, 6.14 74.14, 0 91 M10.26 62.81 C7.9 69.3, 5.54 75.78, 0 91" stroke="#9c36b5" stroke-width="2" fill="none"/></g></g><mask/><g transform="translate(326 624) rotate(0 50 10)"><text x="50" y="0" font-family="Virgil, Segoe UI Emoji" font-size="14px" fill="#1e1e1e" text-anchor="middle" style="white-space: pre;" direction="ltr" dominant-baseline="text-before-edge">pack build</text></g><g stroke-linecap="round"><g transform="translate(623 575) rotate(0 -71 56.5)"><path d="M0 0 C-36.76 29.26, -73.53 58.51, -142 113 M0 0 C-54.43 43.31, -108.86 86.62, -142 113" stroke="#9c36b5" stroke-width="2" fill="none"/></g><g transform="translate(623 575) rotate(0 -71 56.5)"><path d="M-126.33 87.42 C-130.39 94.04, -134.44 100.66, -142 113 M-126.33 87.42 C-132.34 97.22, -138.34 107.03, -142 113" stroke="#9c36b5" stroke-width="2" fill="none"/></g><g transform="translate(623 575) rotate(0 -71 56.5)"><path d="M-113.55 103.47 C-120.92 105.94, -128.28 108.41, -142 113 M-113.55 103.47 C-124.46 107.13, -135.36 110.78, -142 113" stroke="#9c36b5" stroke-width="2" fill="none"/></g></g><mask/><g transform="translate(540.8 624) rotate(0 54.19999999999999 10)"><text x="54.2" y="0" font-family="Virgil, Segoe UI Emoji" font-size="14px" fill="#1e1e1e" text-anchor="middle" style="white-space: pre;" direction="ltr" dominant-baseline="text-before-edge">pack unpack</text></g><g stroke-linecap="round"><g transform="translate(302 832) rotate(0 4.5 73.5)"><path d="M0 0 C-16.52 12.76, -33.03 25.53, -66 51 M0 0 C-25.42 19.64, -50.83 39.28, -66 51 M-66 51 C-66 54.56, -66 58.12, -66 67 M-66 51 C-66 56.33, -66 61.67, -66 67 M-66 67 C-36.99 83.46, -7.97 99.92, 75 147 M-66 67 C-12.6 97.3, 40.8 127.6, 75 147" stroke="#f08c00" stroke-width="2" fill="none"/></g><g transform="translate(302 832) rotate(0 4.5 73.5)"><path d="M45.42 142.01 C52.82 143.26, 60.22 144.51, 75 147 M45.42 142.01 C56.81 143.93, 68.2 145.85, 75 147" stroke="#f08c00" stroke-width="2" fill="none"/></g><g transform="translate(302 832) rotate(0 4.5 73.5)"><path d="M55.54 124.16 C60.41 129.88, 65.28 135.59, 75 147 M55.54 124.16 C63.04 132.96, 70.53 141.75, 75 147" stroke="#f08c00" stroke-width="2" fill="none"/></g></g><mask/><g transform="translate(140.79999999999995 879) rotate(0 83.60000000000002 10)"><text x="83.60000000000001" y="0" font-family="Virgil, Segoe UI Emoji" font-size="14px" fill="#1e1e1e" text-anchor="middle" style="white-space: pre;" direction="ltr" dominant-baseline="text-before-edge">read/write objects</text></g><g stroke-linecap="round"><g transform="translate(379 836) rotate(0 155.5 64.5)"><path d="M0 0 C28.97 14.96, 57.94 29.92, 122 63 M0 0 C26.67 13.77, 53.34 27.55, 122 63 M122 63 C161.31 66, 200.62 68.99, 227 71 M122 63 C159.1 65.83, 196.2 68.65, 227 71 M227 71 C248.24 85.66, 269.47 100.33, 311 129 M227 71 C254.58 90.04, 282.16 109.09, 311 129" stroke="#2f9e44" stroke-width="2" fill="none"/></g><g transform="translate(379 836) rotate(0 155.5 64.5)"><path d="M281.97 121.43 C288.86 123.22, 295.76 125.02, 311 129 M281.97 121.43 C288.32 123.08, 294.66 124.74, 311 129" stroke="#2f9e44" stroke-width="2" fill="none"/></g><g transform="translate(379 836) rotate(0 155.5 64.5)"><path d="M293.63 104.54 C297.76 110.35, 301.88 116.16, 311 129 M293.63 104.54 C297.43 109.89, 301.23 115.23, 311 129" stroke="#2f9e44" stroke-width="2" fill="none"/></g></g><mask/><g transform="translate(489 855) rotate(0 71 10)"><text x="71" y="0" font-family="Virgil, Segoe UI Emoji" font-size="14px" fill="#1e1e1e" text-anchor="middle" style="white-space: pre;" direction="ltr" dominant-baseline="text-before-edge">refs + metadata</text></g><g stroke-linecap="round"><g transform="translate(783 819) rotate(0 -124.5 74)"><path d="M0 0 C-42.51 25.57, -85.02 51.14, -133 80 M-133 80 C-149.99 83.09, -166.99 86.18, -177 88 M-177 88 C-198.92 106.27, -220.84 124.53, -249 148" stroke="#f08c00" stroke-width="2.5" fill="none" stroke-dasharray="8 10"/></g><g transform="translate(783 819) rotate(0 -124.5 74)"><path d="M-233.91 122.07 C-238.73 130.36, -243.56 138.65, -249 148" stroke="#f08c00" stroke-width="2.5" fill="none"/></g><g transform="translate(783 819) rotate(0 -124.5 74)"><path d="M-220.77 137.84 C-229.8 141.08, -238.82 144.33, -249 148" stroke="#f08c00" stroke-width="2.5" fill="none"/></g></g><mask/><g transform="translate(673.4 855) rotate(0 62.60000000000002 10)"><text x="62.6" y="0" font-family="Virgil, Segoe UI Emoji" font-size="14px" fill="#1e1e1e" text-anchor="middle" style="white-space: pre;" direction="ltr" dominant-baseline="text-before-edge">read worktree</text></g><g stroke-linecap="round"><g transform="translate(811 828) rotate(0 30.5 61)"><path d="M0 0 C13.35 15.54, 26.7 31.08, 61 71 M61 71 C50.22 85.86, 39.44 100.72, 24 122" stroke="#2f9e44" stroke-width="2.5" fill="none" stroke-dasharray="8 10"/></g><g transform="translate(811 828) rotate(0 30.5 61)"><path d="M32.25 93.16 C30.44 99.47, 28.64 105.78, 24 122" stroke="#2f9e44" stroke-width="2.5" fill="none"/></g><g transform="translate(811 828) rotate(0 30.5 61)"><path d="M48.86 105.21 C43.42 108.88, 37.98 112.56, 24 122" stroke="#2f9e44" stroke-width="2.5" fill="none"/></g></g><mask/><g transform="translate(863.6 879) rotate(0 79.40000000000003 10)"><text x="79.4" y="0" font-family="Virgil, Segoe UI Emoji" font-size="14px" fill="#1e1e1e" text-anchor="middle" style="white-space: pre;" direction="ltr" dominant-baseline="text-before-edge">read commits/refs</text></g><g stroke-opacity="0.6" fill-opacity="0.6" stroke-linecap="round" transform="translate(10 436) rotate(0 388 84)"><path d="M32 0 C300.35 0, 568.7 0, 744 0 M744 0 C765.33 0, 776 10.67, 776 32 M776 32 C776 64.5, 776 97.01, 776 136 M776 136 C776 157.33, 765.33 168, 744 168 M744 168 C585.33 168, 426.66 168, 32 168 M32 168 C10.67 168, 0 157.33, 0 136 M0 136 C0 100.31, 0 64.62, 0 32 M0 32 C0 10.67, 10.67 0, 32 0" stroke="#868e96" stroke-width="1.5" fill="none" stroke-dasharray="8 9"/></g><g stroke-opacity="0.6" fill-opacity="0.6" transform="translate(20 441) rotate(0 41.6 10)"><text x="0" y="0" font-family="Virgil, Segoe UI Emoji" font-size="14px" fill="#868e96" text-anchor="start" style="white-space: pre;" direction="ltr" dominant-baseline="text-before-edge">Handlers</text></g><g stroke-opacity="0.6" fill-opacity="0.6" stroke-linecap="round" transform="translate(352 907) rotate(0 284 108)"><path d="M32 0 C175.7 0, 319.4 0, 536 0 M536 0 C557.33 0, 568 10.67, 568 32 M568 32 C568 71.74, 568 111.48, 568 184 M568 184 C568 205.33, 557.33 216, 536 216 M536 216 C405.52 216, 275.05 216, 32 216 M32 216 C10.67 216, 0 205.33, 0 184 M0 184 C0 152.67, 0 121.34, 0 32 M0 32 C0 10.67, 10.67 0, 32 0" stroke="#868e96" stroke-width="1.5" fill="none" stroke-dasharray="8 9"/></g><g stroke-opacity="0.6" fill-opacity="0.6" transform="translate(362 912) rotate(0 37.400000000000006 10)"><text x="0" y="0" font-family="Virgil, Segoe UI Emoji" font-size="14px" fill="#868e96" text-anchor="start" style="white-space: pre;" direction="ltr" dominant-baseline="text-before-edge">Storage</text></g></svg>