<svg version="1.1" xmlns="http://www.w3.org/2000/svg" viewBox="0 0 1663 172" width="1663" height="172">
  <!-- svg-source:excalidraw -->
  
  <defs>
    <style class="style-fonts">
      @font-face {
        font-family: "Virgil";
        src: url("https://unpkg.com/@excalidraw/excalidraw@undefined/dist/excalidraw-assets/Virgil.woff2");
      }
      @font-face {
        font-family: "Cascadia";
        src: url("https://unpkg.com/@excalidraw/excalidraw@undefined/dist/excalidraw-assets/Cascadia.woff2");
      }
      @font-face {
        font-family: "Assistant";
        src: url("https://unpkg.com/@excalidraw/excalidraw@undefined/dist/excalidraw-assets/Assistant-Regular.woff2");
      }
    </style>
    
  </defs>
  <rect x="0" y="0" width="1663" height="172" fill="#ffffff"/><g stroke-opacity="0.9" fill-opacity="0.9" stroke-linecap="round" transform="translate(10 34) rotate(0 70 52)"><path d="M26 0 C56.85 0, 87.71 0, 114 0 C131.33 0, 140 8.67, 140 26 C140 38.12, 140 50.25, 140 78 C140 95.33, 131.33 104, 114 104 C94.68 104, 75.35 104, 26 104 C8.67 104, 0 95.33, 0 78 C0 57.43, 0 36.85, 0 26 C0 8.67, 8.67 0, 26 0" stroke="none" stroke-width="0" fill="#e7f5ff"/><path d="M26 0 C55.13 0, 84.26 0, 114 0 M26 0 C54.81 0, 83.63 0, 114 0 M114 0 C131.33 0, 140 8.67, 140 26 M114 0 C131.33 0, 140 8.67, 140 26 M140 26 C140 37.92, 140 49.83, 140 78 M140 26 C140 46.06, 140 66.12, 140 78 M140 78 C140 95.33, 131.33 104, 114 104 M140 78 C140 95.33, 131.33 104, 114 104 M114 104 C91.07 104, 68.13 104, 26 104 M114 104 C95.66 104, 77.33 104, 26 104 M26 104 C8.67 104, 0 95.33, 0 78 M26 104 C8.67 104, 0 95.33, 0 78 M0 78 C0 59.46, 0 40.92, 0 26 M0 78 C0 66.23, 0 54.47, 0 26 M0 26 C0 8.67, 8.67 0, 26 0 M0 26 C0 8.67, 8.67 0, 26 0" stroke="#1971c2" stroke-width="1" fill="none"/></g><g stroke-opacity="0.9" fill-opacity="0.9" transform="translate(20 76) rotate(0 60 10)"><text x="60" y="0" font-family="Helvetica, Segoe UI Emoji" font-size="16px" fill="#1971c2" text-anchor="middle" style="white-space: pre;" direction="ltr" dominant-baseline="text-before-edge">👤</text><text x="60" y="18.4" font-family="Helvetica, Segoe UI Emoji" font-size="16px" fill="#1971c2" text-anchor="middle" style="white-space: pre;" direction="ltr" dominant-baseline="text-before-edge">Git Client</text></g><g stroke-opacity="0.9" fill-opacity="0.9" stroke-linecap="round" transform="translate(303 34) rotate(0 70 52)"><path d="M26 0 C44.23 0, 62.46 0, 114 0 C131.33 0, 140 8.67, 140 26 C140 42.98, 140 59.96, 140 78 C140 95.33, 131.33 104, 114 104 C96.2 104, 78.41 104, 26 104 C8.67 104, 0 95.33, 0 78 C0 57.32, 0 36.63, 0 26 C0 8.67, 8.67 0, 26 0" stroke="none" stroke-width="0" fill="#d0bfff"/><path d="M26 0 C48.55 0, 71.1 0, 114 0 M26 0 C58.11 0, 90.23 0, 114 0 M114 0 C131.33 0, 140 8.67, 140 26 M114 0 C131.33 0, 140 8.67, 140 26 M140 26 C140 42.98, 140 59.97, 140 78 M140 26 C140 46.01, 140 66.02, 140 78 M140 78 C140 95.33, 131.33 104, 114 104 M140 78 C140 95.33, 131.33 104, 114 104 M114 104 C84.96 104, 55.92 104, 26 104 M114 104 C87.84 104, 61.67 104, 26 104 M26 104 C8.67 104, 0 95.33, 0 78 M26 104 C8.67 104, 0 95.33, 0 78 M0 78 C0 62.24, 0 46.47, 0 26 M0 78 C0 65.87, 0 53.74, 0 26 M0 26 C0 8.67, 8.67 0, 26 0 M0 26 C0 8.67, 8.67 0, 26 0" stroke="#7048e8" stroke-width="1" fill="none"/></g><g stroke-opacity="0.9" fill-opacity="0.9" transform="translate(313 76) rotate(0 60 10)"><text x="60" y="0" font-family="Helvetica, Segoe UI Emoji" font-size="16px" fill="#7048e8" text-anchor="middle" style="white-space: pre;" direction="ltr" dominant-baseline="text-before-edge">☁️</text><text x="60" y="18.4" font-family="Helvetica, Segoe UI Emoji" font-size="16px" fill="#7048e8" text-anchor="middle" style="white-space: pre;" direction="ltr" dominant-baseline="text-before-edge">Worker</text></g><g stroke-opacity="0.9" fill-opacity="0.9" stroke-linecap="round" transform="translate(579 10) rotate(0 85 76)"><path d="M32 0 C66.54 0, 101.09 0, 138 0 C159.33 0, 170 10.67, 170 32 C170 66.81, 170 101.63, 170 120 C170 141.33, 159.33 152, 138 152 C96.69 152, 55.38 152, 32 152 C10.67 152, 0 141.33, 0 120 C0 101.14, 0 82.29, 0 32 C0 10.67, 10.67 0, 32 0" stroke="none" stroke-width="0" fill="#e599f7"/><path d="M32 0 C60.41 0, 88.81 0, 138 0 M32 0 C65.23 0, 98.47 0, 138 0 M138 0 C159.33 0, 170 10.67, 170 32 M138 0 C159.33 0, 170 10.67, 170 32 M170 32 C170 54.16, 170 76.33, 170 120 M170 32 C170 50.08, 170 68.16, 170 120 M170 120 C170 141.33, 159.33 152, 138 152 M170 120 C170 141.33, 159.33 152, 138 152 M138 152 C104.26 152, 70.53 152, 32 152 M138 152 C98.32 152, 58.64 152, 32 152 M32 152 C10.67 152, 0 141.33, 0 120 M32 152 C10.67 152, 0 141.33, 0 120 M0 120 C0 98.83, 0 77.65, 0 32 M0 120 C0 88.89, 0 57.78, 0 32 M0 32 C0 10.67, 10.67 0, 32 0 M0 32 C0 10.67, 10.67 0, 32 0" stroke="#9c36b5" stroke-width="1" fill="none"/></g><g stroke-opacity="0.9" fill-opacity="0.9" transform="translate(589 76) rotate(0 75 10)"><text x="75" y="0" font-family="Helvetica, Segoe UI Emoji" font-size="16px" fill="#9c36b5" text-anchor="middle" style="white-space: pre;" direction="ltr" dominant-baseline="text-before-edge">⚡</text><text x="75" y="18.4" font-family="Helvetica, Segoe UI Emoji" font-size="16px" fill="#9c36b5" text-anchor="middle" style="white-space: pre;" direction="ltr" dominant-baseline="text-before-edge">Phase 1</text><text x="75" y="36.8" font-family="Helvetica, Segoe UI Emoji" font-size="16px" fill="#9c36b5" text-anchor="middle" style="white-space: pre;" direction="ltr" dominant-baseline="text-before-edge">CPU-only</text><text x="75" y="55.199999999999996" font-family="Helvetica, Segoe UI Emoji" font-size="16px" fill="#9c36b5" text-anchor="middle" style="white-space: pre;" direction="ltr" dominant-baseline="text-before-edge">hash + compress</text></g><g stroke-opacity="0.9" fill-opacity="0.9" stroke-linecap="round" transform="translate(894 10) rotate(0 85 76)"><path d="M32 0 C61.33 0, 90.67 0, 138 0 C159.33 0, 170 10.67, 170 32 C170 56.17, 170 80.34, 170 120 C170 141.33, 159.33 152, 138 152 C108.65 152, 79.31 152, 32 152 C10.67 152, 0 141.33, 0 120 C0 100.67, 0 81.33, 0 32 C0 10.67, 10.67 0, 32 0" stroke="none" stroke-width="0" fill="#ffec99"/><path d="M32 0 C65.21 0, 98.42 0, 138 0 M32 0 C74.22 0, 116.44 0, 138 0 M138 0 C159.33 0, 170 10.67, 170 32 M138 0 C159.33 0, 170 10.67, 170 32 M170 32 C170 57.94, 170 83.89, 170 120 M170 32 C170 59.09, 170 86.18, 170 120 M170 120 C170 141.33, 159.33 152, 138 152 M170 120 C170 141.33, 159.33 152, 138 152 M138 152 C107.89 152, 77.78 152, 32 152 M138 152 C100.29 152, 62.59 152, 32 152 M32 152 C10.67 152, 0 141.33, 0 120 M32 152 C10.67 152, 0 141.33, 0 120 M0 120 C0 92.59, 0 65.18, 0 32 M0 120 C0 91.21, 0 62.43, 0 32 M0 32 C0 10.67, 10.67 0, 32 0 M0 32 C0 10.67, 10.67 0, 32 0" stroke="#f08c00" stroke-width="1" fill="none"/></g><g stroke-opacity="0.9" fill-opacity="0.9" transform="translate(904 76) rotate(0 75 10)"><text x="75" y="0" font-family="Helvetica, Segoe UI Emoji" font-size="16px" fill="#f08c00" text-anchor="middle" style="white-space: pre;" direction="ltr" dominant-baseline="text-before-edge">🗄️</text><text x="75" y="18.4" font-family="Helvetica, Segoe UI Emoji" font-size="16px" fill="#f08c00" text-anchor="middle" style="white-space: pre;" direction="ltr" dominant-baseline="text-before-edge">Phase 2</text><text x="75" y="36.8" font-family="Helvetica, Segoe UI Emoji" font-size="16px" fill="#f08c00" text-anchor="middle" style="white-space: pre;" direction="ltr" dominant-baseline="text-before-edge">Batch R2 PUTs</text><text x="75" y="55.199999999999996" font-family="Helvetica, Segoe UI Emoji" font-size="16px" fill="#f08c00" text-anchor="middle" style="white-space: pre;" direction="ltr" dominant-baseline="text-before-edge">(50 concurrent)</text></g><g stroke-opacity="0.9" fill-opacity="0.9" stroke-linecap="round" transform="translate(1151 10) rotate(0 85 76)"><path d="M32 0 C68.25 0, 104.49 0, 138 0 C159.33 0, 170 10.67, 170 32 C170 63.13, 170 94.26, 170 120 C170 141.33, 159.33 152, 138 152 C112.2 152, 86.4 152, 32 152 C10.67 152, 0 141.33, 0 120 C0 85.72, 0 51.43, 0 32 C0 10.67, 10.67 0, 32 0" stroke="none" stroke-width="0" fill="#b2f2bb"/><path d="M32 0 C55.65 0, 79.29 0, 138 0 M32 0 C56.31 0, 80.63 0, 138 0 M138 0 C159.33 0, 170 10.67, 170 32 M138 0 C159.33 0, 170 10.67, 170 32 M170 32 C170 63.88, 170 95.76, 170 120 M170 32 C170 66.08, 170 100.16, 170 120 M170 120 C170 141.33, 159.33 152, 138 152 M170 120 C170 141.33, 159.33 152, 138 152 M138 152 C107.53 152, 77.07 152, 32 152 M138 152 C112.59 152, 87.18 152, 32 152 M32 152 C10.67 152, 0 141.33, 0 120 M32 152 C10.67 152, 0 141.33, 0 120 M0 120 C0 93.39, 0 66.78, 0 32 M0 120 C0 92.09, 0 64.17, 0 32 M0 32 C0 10.67, 10.67 0, 32 0 M0 32 C0 10.67, 10.67 0, 32 0" stroke="#2f9e44" stroke-width="1" fill="none"/></g><g stroke-opacity="0.9" fill-opacity="0.9" transform="translate(1161 76) rotate(0 75 10)"><text x="75" y="0" font-family="Helvetica, Segoe UI Emoji" font-size="16px" fill="#2f9e44" text-anchor="middle" style="white-space: pre;" direction="ltr" dominant-baseline="text-before-edge">🔒</text><text x="75" y="18.4" font-family="Helvetica, Segoe UI Emoji" font-size="16px" fill="#2f9e44" text-anchor="middle" style="white-space: pre;" direction="ltr" dominant-baseline="text-before-edge">Update Refs</text><text x="75" y="36.8" font-family="Helvetica, Segoe UI Emoji" font-size="16px" fill="#2f9e44" text-anchor="middle" style="white-space: pre;" direction="ltr" dominant-baseline="text-before-edge">+ Index Commits</text><text x="75" y="55.199999999999996" font-family="Helvetica, Segoe UI Emoji" font-size="16px" fill="#2f9e44" text-anchor="middle" style="white-space: pre;" direction="ltr" dominant-baseline="text-before-edge">(DO SQLite)</text></g><g stroke-opacity="0.9" fill-opacity="0.9" stroke-linecap="round" transform="translate(1483 22) rotate(0 85 64)"><path d="M32 0 C63.46 0, 94.91 0, 138 0 C159.33 0, 170 10.67, 170 32 C170 45.88, 170 59.76, 170 96 C170 117.33, 159.33 128, 138 128 C114.44 128, 90.89 128, 32 128 C10.67 128, 0 117.33, 0 96 C0 81.87, 0 67.74, 0 32 C0 10.67, 10.67 0, 32 0" stroke="none" stroke-width="0" fill="#a5d8ff"/><path d="M32 0 C67.34 0, 102.67 0, 138 0 M32 0 C61.41 0, 90.81 0, 138 0 M138 0 C159.33 0, 170 10.67, 170 32 M138 0 C159.33 0, 170 10.67, 170 32 M170 32 C170 51.19, 170 70.39, 170 96 M170 32 C170 47.28, 170 62.55, 170 96 M170 96 C170 117.33, 159.33 128, 138 128 M170 96 C170 117.33, 159.33 128, 138 128 M138 128 C111.08 128, 84.16 128, 32 128 M138 128 C114.77 128, 91.54 128, 32 128 M32 128 C10.67 128, 0 117.33, 0 96 M32 128 C10.67 128, 0 117.33, 0 96 M0 96 C0 74.03, 0 52.07, 0 32 M0 96 C0 79.96, 0 63.93, 0 32 M0 32 C0 10.67, 10.67 0, 32 0 M0 32 C0 10.67, 10.67 0, 32 0" stroke="#1971c2" stroke-width="1" fill="none"/></g><g stroke-opacity="0.9" fill-opacity="0.9" transform="translate(1493 76) rotate(0 75 10)"><text x="75" y="0" font-family="Helvetica, Segoe UI Emoji" font-size="16px" fill="#1971c2" text-anchor="middle" style="white-space: pre;" direction="ltr" dominant-baseline="text-before-edge">Worktree</text><text x="75" y="18.4" font-family="Helvetica, Segoe UI Emoji" font-size="16px" fill="#1971c2" text-anchor="middle" style="white-space: pre;" direction="ltr" dominant-baseline="text-before-edge">Incremental +</text><text x="75" y="36.8" font-family="Helvetica, Segoe UI Emoji" font-size="16px" fill="#1971c2" text-anchor="middle" style="white-space: pre;" direction="ltr" dominant-baseline="text-before-edge">Optimistic Cache</text></g><g stroke-linecap="round"><g transform="translate(151 86) rotate(0 70.5 0)"><path d="M0 0 C40.74 0, 81.47 0, 141 0 M0 0 C31.63 0, 63.27 0, 141 0" stroke="#7048e8" stroke-width="2" fill="none"/></g><g transform="translate(151 86) rotate(0 70.5 0)"><path d="M112.81 10.26 C120.95 7.3, 129.1 4.33, 141 0 M112.81 10.26 C119.13 7.96, 125.46 5.66, 141 0" stroke="#7048e8" stroke-width="2" fill="none"/></g><g transform="translate(151 86) rotate(0 70.5 0)"><path d="M112.81 -10.26 C120.95 -7.3, 129.1 -4.33, 141 0 M112.81 -10.26 C119.13 -7.96, 125.46 -5.66, 141 0" stroke="#7048e8" stroke-width="2" fill="none"/></g></g><mask/><g transform="translate(185.4 66) rotate(0 41.60000000000001 10)"><text x="41.6" y="0" font-family="Virgil, Segoe UI Emoji" font-size="14px" fill="#1e1e1e" text-anchor="middle" style="white-space: pre;" direction="ltr" dominant-baseline="text-before-edge">packfile</text></g><g stroke-linecap="round"><g transform="translate(443 86) rotate(0 62.5 0)"><path d="M0 0 C49.52 0, 99.03 0, 125 0 M0 0 C38.63 0, 77.26 0, 125 0" stroke="#9c36b5" stroke-width="2" fill="none"/></g><g transform="translate(443 86) rotate(0 62.5 0)"><path d="M96.81 10.26 C107.98 6.2, 119.14 2.13, 125 0 M96.81 10.26 C105.52 7.09, 114.23 3.92, 125 0" stroke="#9c36b5" stroke-width="2" fill="none"/></g><g transform="translate(443 86) rotate(0 62.5 0)"><path d="M96.81 -10.26 C107.98 -6.2, 119.14 -2.13, 125 0 M96.81 -10.26 C105.52 -7.09, 114.23 -3.92, 125 0" stroke="#9c36b5" stroke-width="2" fill="none"/></g></g><mask/><g transform="translate(477.8 66) rotate(0 33.20000000000002 10)"><text x="33.2" y="0" font-family="Virgil, Segoe UI Emoji" font-size="14px" fill="#1e1e1e" text-anchor="middle" style="white-space: pre;" direction="ltr" dominant-baseline="text-before-edge">unpack</text></g><g stroke-linecap="round"><g transform="translate(750 86) rotate(0 66 0)"><path d="M0 0 C36.44 0, 72.89 0, 132 0 M0 0 C42.18 0, 84.36 0, 132 0" stroke="#f08c00" stroke-width="2" fill="none"/></g><g transform="translate(750 86) rotate(0 66 0)"><path d="M103.81 10.26 C111.59 7.43, 119.38 4.59, 132 0 M103.81 10.26 C112.82 6.98, 121.83 3.7, 132 0" stroke="#f08c00" stroke-width="2" fill="none"/></g><g transform="translate(750 86) rotate(0 66 0)"><path d="M103.81 -10.26 C111.59 -7.43, 119.38 -4.59, 132 0 M103.81 -10.26 C112.82 -6.98, 121.83 -3.7, 132 0" stroke="#f08c00" stroke-width="2" fill="none"/></g></g><mask/><g transform="translate(784.6 66) rotate(0 37.400000000000034 10)"><text x="37.400000000000006" y="0" font-family="Virgil, Segoe UI Emoji" font-size="14px" fill="#1e1e1e" text-anchor="middle" style="white-space: pre;" direction="ltr" dominant-baseline="text-before-edge">objects</text></g><g stroke-linecap="round"><g transform="translate(1064 86) rotate(0 38 0)"><path d="M0 0 C22.8 0, 45.61 0, 76 0 M0 0 C20.39 0, 40.77 0, 76 0" stroke="#2f9e44" stroke-width="2" fill="none"/></g><g transform="translate(1064 86) rotate(0 38 0)"><path d="M47.81 10.26 C56.27 7.18, 64.73 4.1, 76 0 M47.81 10.26 C55.37 7.51, 62.93 4.76, 76 0" stroke="#2f9e44" stroke-width="2" fill="none"/></g><g transform="translate(1064 86) rotate(0 38 0)"><path d="M47.81 -10.26 C56.27 -7.18, 64.73 -4.1, 76 0 M47.81 -10.26 C55.37 -7.51, 62.93 -4.76, 76 0" stroke="#2f9e44" stroke-width="2" fill="none"/></g></g><mask/><g stroke-linecap="round"><g transform="translate(1321 86) rotate(0 75 0)"><path d="M0 0 C33.55 0, 67.11 0, 150 0 M0 0 C55.54 0, 111.08 0, 150 0" stroke="#1971c2" stroke-width="2" fill="none"/></g><g transform="translate(1321 86) rotate(0 75 0)"><path d="M121.81 10.26 C128.12 7.97, 134.42 5.67, 150 0 M121.81 10.26 C132.25 6.46, 142.69 2.66, 150 0" stroke="#1971c2" stroke-width="2" fill="none"/></g><g transform="translate(1321 86) rotate(0 75 0)"><path d="M121.81 -10.26 C128.12 -7.97, 134.42 -5.67, 150 0 M121.81 -10.26 C132.25 -6.46, 142.69 -2.66, 150 0" stroke="#1971c2" stroke-width="2" fill="none"/></g></g><mask/><g transform="translate(1356.2 58) rotate(0 45.799999999999955 10)"><text x="45.800000000000004" y="0" font-family="Virgil, Segoe UI Emoji" font-size="14px" fill="#1e1e1e" text-anchor="middle" style="white-space: pre;" direction="ltr" dominant-baseline="text-before-edge">in-memory</text><text x="45.800000000000004" y="17.5" font-family="Virgil, Segoe UI Emoji" font-size="14px" fill="#1e1e1e" text-anchor="middle" style="white-space: pre;" direction="ltr" dominant-baseline="text-before-edge">objects</text></g></svg>